<?xml version="1.0" encoding="UTF-8"?>
<svg id="Layer_1" data-name="Layer 1" xmlns="http://www.w3.org/2000/svg" viewBox="0 0 2546.7 1672.66">
  <defs>
    <style>
      .cls-1 {
        fill: #590016;
      }

      .cls-1, .cls-2, .cls-3, .cls-4, .cls-5, .cls-6, .cls-7, .cls-8, .cls-9, .cls-10, .cls-11, .cls-12, .cls-13, .cls-14, .cls-15, .cls-16, .cls-17, .cls-18, .cls-19, .cls-20, .cls-21, .cls-22, .cls-23, .cls-24, .cls-25, .cls-26, .cls-27, .cls-28, .cls-29, .cls-30, .cls-31, .cls-32, .cls-33, .cls-34, .cls-35, .cls-36, .cls-37, .cls-38, .cls-39, .cls-40 {
        fill-rule: evenodd;
      }

      .cls-2 {
        fill: #d9e397;
      }

      .cls-3 {
        fill: #cbc68e;
      }

      .cls-4 {
        fill: #dec5e2;
      }

      .cls-41 {
        fill: #d8bade;
      }

      .cls-5 {
        fill: #ac857d;
      }

      .cls-6 {
        fill: #e4ebba;
      }

      .cls-7 {
        fill: #f7fae9;
      }

      .cls-8 {
        fill: #f6f8e6;
      }

      .cls-9 {
        fill: #fff;
      }

      .cls-10 {
        fill: #f0e6f1;
      }

      .cls-11 {
        fill: #0f3f57;
      }

      .cls-12 {
        fill: #d2d392;
      }

      .cls-13 {
        fill: #400010;
      }

      .cls-14 {
        fill: #eaf0c7;
      }

      .cls-15 {
        fill: #ff7760;
      }

      .cls-16 {
        fill: #f29c7d;
      }

      .cls-17 {
        fill: #dbe497;
      }

      .cls-18 {
        fill: #be8fc6;
      }

      .cls-19 {
        fill: #c5b98c;
      }

      .cls-20, .cls-42 {
        fill: #dee7a4;
      }

      .cls-21 {
        fill: #b29281;
      }

      .cls-22 {
        fill: #09394c;
      }

      .cls-23 {
        fill: #0a2b38;
      }

      .cls-24 {
        fill: #ed9b7d;
      }

      .cls-25 {
        fill: #144d5e;
      }

      .cls-26 {
        fill: #fcab8d;
      }

      .cls-27 {
        fill: #0e3a47;
      }

      .cls-28, .cls-43 {
        fill: #f0f5d3;
      }

      .cls-29 {
        fill: #e8a878;
      }

      .cls-30 {
        fill: #c13a49;
      }

      .cls-31 {
        fill: #fefefe;
      }

      .cls-32 {
        fill: #ff8c72;
      }

      .cls-33 {
        fill: #b89f84;
      }

      .cls-34 {
        fill: #d8e198;
      }

      .cls-35 {
        fill: #c599ce;
      }

      .cls-36 {
        fill: #c5c98d;
      }

      .cls-37 {
        fill: #ff957b;
      }

      .cls-38 {
        fill: #bd615e;
      }

      .cls-39 {
        fill: #3a3140;
      }

      .cls-40 {
        fill: #446;
      }
    </style>
  </defs>
  <path class="cls-7" d="m206.2,570.44C504.13,39.34,1182.03,146.82,1548.76,269.42c475.44,158.96,740.67,428.86,769.59,796.83,50.11,637.19-234.25-192.17-1470.56,300.4C241.18,1608.34,28.06,888,206.2,570.44Z"/>
  <path class="cls-9" d="m2269.79,1070.07c.92,11.88-7.94,22.27-19.82,23.19-11.87.93-22.26-7.94-23.18-19.81-9.92-126.06-50.75-233.13-113-324.13-62.58-91.48-146.94-167.06-243.4-229.58-9.96-6.46-12.79-19.8-6.32-29.76,6.47-9.96,19.8-12.79,29.76-6.32,101.01,65.45,189.53,144.88,255.55,241.37,66.36,97.01,109.88,210.99,120.41,345.03h0ZM349.07,455.11c8.05-8.75,21.68-9.32,30.44-1.27,8.75,8.06,9.32,21.69,1.27,30.45-17.83,19.33-34.64,39.88-50.37,61.69-15.48,21.46-30.2,44.58-44.11,69.38-27.87,49.68-42.53,109.56-47.24,171.27-5.48,72.01,2.54,146.07,19.02,209.35,2.98,11.51-3.93,23.25-15.42,26.23-11.51,2.97-23.25-3.93-26.23-15.43-17.61-67.68-26.21-146.7-20.37-223.36,5.15-67.54,21.49-133.59,52.64-189.14,14.43-25.72,30.06-50.18,46.81-73.43,17-23.58,34.88-45.49,53.57-65.75Z"/>
  <ellipse class="cls-43" cx="1273.35" cy="1608.59" rx="1273.35" ry="64.07"/>
  <path class="cls-7" d="m2223.64,395.45c48.27.89,86.68,40.75,85.78,89.01-.89,48.28-40.74,86.69-89.02,85.79-48.27-.89-86.67-40.74-85.78-89.02.89-48.27,40.75-86.67,89.02-85.78h0Zm-185.2-38.41c24.9.46,44.71,21.02,44.25,45.92-.46,24.89-21.02,44.7-45.91,44.24-24.9-.46-44.71-21.02-44.25-45.91.46-24.9,21.02-44.71,45.91-44.25Z"/>
  <path class="cls-7" d="m1835.87,1300.12c20.84,31.61,12.1,74.12-19.49,94.96-31.61,20.83-74.13,12.11-94.96-19.49-20.84-31.61-12.1-74.13,19.49-94.96,31.61-20.84,74.13-12.11,94.96,19.49h0Zm140.08,18.68c12.73,19.29,7.39,45.27-11.9,58-19.31,12.73-45.28,7.39-58.01-11.9-12.72-19.31-7.39-45.28,11.91-58.01,19.3-12.72,45.27-7.39,58,11.91Z"/>
  <path class="cls-7" d="m264.89,1328.15c-2.06,37.79-34.37,66.78-72.17,64.71-37.8-2.06-66.78-34.37-64.72-72.18,2.06-37.8,34.38-66.78,72.18-64.71,37.8,2.06,66.78,34.37,64.72,72.17h0Zm101.46,98.35c-1.26,23.09-20.99,40.78-44.08,39.53-23.08-1.25-40.78-20.99-39.53-44.08,1.26-23.08,20.99-40.78,44.08-39.53,23.08,1.26,40.78,20.99,39.53,44.08Z"/>
  <g>
    <polygon class="cls-6" points="507.91 975.81 1259.25 975.81 1267.06 975.81 2018.4 975.81 2018.4 972.12 1267.06 972.12 1259.25 972.12 507.91 972.12 507.91 975.81"/>
    <path class="cls-6" d="m1259.25,1004.4h722.08c7.82,0,20.99-.25,37.07-.73v.54c0,10.74-140.59,16.92-172.38,16.92H680.29c-31.79,0-172.38-6.18-172.38-16.92v-.54c16.06.48,29.24.73,37.07.73h714.27Z"/>
    <path class="cls-34" d="m1259.25,975.81H507.91v27.86c16.06.48,29.24.73,37.07.73h1436.35c7.82,0,20.99-.25,37.07-.73v-27.86h-759.15Z"/>
    <g>
      <path class="cls-9" d="m703.66,931.05h1119V270.16H712.3c-4.67,0-8.64,3.97-8.64,8.64v652.25Z"/>
      <path class="cls-34" d="m683.39,972.12h1172.19c4.49,0,8.15-3.66,8.15-8.14V267.79c0-21.28-17.42-38.71-38.71-38.71H712.3c-27.35,0-49.71,22.38-49.71,49.72v687.32c0,3.31,2.69,6,6,6h14.81Zm1139.26-48.51v7.44H703.66V278.8c0-4.67,3.97-8.64,8.64-8.64h1110.36v653.45Z"/>
      <path class="cls-8" d="m1405.35,270.16l-450.64,660.89h-168.48l450.64-660.89h168.48Zm-418.67,660.89h124.8l450.64-660.89h-124.8l-450.64,660.89h0Zm159.89,0h68.64l450.64-660.89h-68.64l-450.64,660.89Z"/>
    </g>
  </g>
  <g>
    <g>
      <path class="cls-33" d="m628.79,1651.9l-452.18-145.3c-17.03-28.98-17.94-66.03-4.37-96.53l453.48,110.28c-17.24,41.6-17.95,91.19,3.06,131.56Z"/>
      <path class="cls-14" d="m1395.5,1441.25l-1.18,81.1-756.64,111.19c-12.85-30.6-12.7-65.89-2.22-97.16l760.04-95.13Z"/>
      <path class="cls-3" d="m628.57,1568.13c-2.28,22.07.46,44.91,9.1,65.41l756.64-111.19-.2,14.18-765.32,115.37c-21.01-40.37-20.3-89.96-3.06-131.56l769.97-93.4-.2,14.31-760.04,95.13c-3.43,10.21-5.76,21.05-6.88,31.75Z"/>
      <polygon class="cls-19" points="625.73 1520.35 172.25 1410.06 820.14 1353.15 1395.7 1426.94 625.73 1520.35"/>
      <path class="cls-34" d="m586.35,1510.77l-17.51-4.26c-11.6,40.64-12.28,84.39-2.15,125.44l20.46,6.57c-12.47-41.31-12.78-86.3-.79-127.75Z"/>
      <path class="cls-34" d="m207.54,1418.65l-10.56-2.57c-9.59,31.23-10.29,64.82-2.19,96.38l12.46,3.99c-9.39-31.6-9.37-66.34.29-97.8Z"/>
      <path class="cls-28" d="m1160.6,1497.57c-33.9.88-67.08,8.52-100.42,13.93,53.06,6.6,107.03.18,158.76-12.44,1.13-.28,2.26-.58,3.39-.87-20.56-.82-41.16-1.43-61.73-.62Z"/>
      <path class="cls-28" d="m1253.07,1495.75c14.46,1.75,29.1.89,43.23-2.59-14.44-1.62-29.07-.76-43.23,2.59Z"/>
      <path class="cls-28" d="m742.49,1601.1c54.02,1.79,107.44-7.89,159.57-21.19-54.12-3.87-107.83,5.83-159.57,21.19Z"/>
      <path class="cls-28" d="m910.8,1562.41c14.61,1.36,29.35-.12,43.46-4.16-14.62-1.09-29.31.39-43.46,4.16Z"/>
      <path class="cls-28" d="m942.26,1569.54c8.83.74,17.73-.12,26.26-2.5-8.83-.75-17.72.11-26.26,2.5Z"/>
      <path class="cls-3" d="m495.56,1488.69l-247.43-60.18c-7.95,32.88-8.35,67.58-1.28,100.66l23.69,7.61,136,43.7,111.76,35.92c-1.76-7.63-3.15-15.35-4.18-23.11-4.33-32.83-2.01-66.55,7-98.39l-25.55-6.21Z"/>
      <path class="cls-19" d="m696.29,1653.2s-12.4-60.1-31.74-98.28c-2.73-5.41-5.6-10.37-8.61-14.67,21.3-2.03,42.66-3.61,63.97-5.27.76,1.56,1.54,3.23,2.33,4.99,13.97,31.04,33.06,90.51,33.06,90.51l-41.06-20.77-17.96,43.5Z"/>
    </g>
    <g>
      <polygon class="cls-21" points="639.24 1130.46 1209.07 1174.98 952.8 1279.17 304.37 1202.03 639.24 1130.46"/>
      <g>
        <polygon class="cls-2" points="1193.01 1368.17 1195.87 1368.56 1192.98 1370.36 1193.01 1368.17"/>
        <path class="cls-5" d="m327.47,1398.66c-30.59-49.48-40.08-121.71-9-173.03-.23-.18-1.3-.04-2.58.2l1.5-.34c-.92-.13-3.05-.48-4.49-.36l.56-.13-1.3-.17c-.25.36-1.17,1.79-1.42,2.19l1.32-.3c-.65.16-1.14.28-1.32.3-31.54,51.74-21.8,125.03,9.27,174.89l7.87-2.6-.41-.66Z"/>
        <path class="cls-33" d="m298.9,1353.99c4.82,16.8,11.88,33.07,21.11,47.92l621.12,125,11.84,2.38v26.79s-638.74-134.18-638.74-134.18c-27.87-40.95-41.5-91.68-37.64-141.08,2.34-27.98,10.72-56.19,27.78-78.81l648.43,77.14.02,27.73c-5.66-.72-628.43-80.5-634.37-81.27-1.51-.19-4.79-.61-6.3-.81-24.38,37.78-25.19,86.92-13.26,129.16Z"/>
        <polygon class="cls-19" points="952.8 1279.17 1209.07 1174.98 1208.71 1196.51 1195.65 1202.14 952.82 1306.9 952.8 1279.17"/>
        <polygon class="cls-19" points="1205.8 1369.92 1205.46 1390.89 952.98 1556.09 952.97 1529.3 1205.8 1369.92"/>
        <path class="cls-14" d="m1192.98,1370.36l-245.46,152.59-.23-216.76,5.54.71,242.83-104.76c-.04,2.99-2.62,165.32-2.67,168.22Z"/>
        <path class="cls-28" d="m1194.13,1297.52l-.09,5.8c-28.73,15.51-59.71,26.43-91.74,33.12,30.5-18.26,59.56-30.17,91.84-38.92Z"/>
        <path class="cls-28" d="m947.28,1306.19l.23,216.76-619.64-123.64c-30.94-49.61-40.61-122.09-9.41-173.68l628.82,80.56Z"/>
        <path class="cls-28" d="m1158.47,1249.61c-66.03,19.95-127.05,45.87-187,72.38,72.96-16.12,139.56-42.61,198.71-74.22,2.67-1.42,5.32-2.84,7.97-4.27-6.58,2.02-13.13,4.06-19.68,6.12Z"/>
        <path class="cls-28" d="m1126.2,1366.28c19.09-7.31,37.83-17.67,54.53-31.14-19.93,6.97-38.47,17.42-54.53,31.14Z"/>
        <path class="cls-28" d="m720.18,1311.89c22.85,6.96,46.77,9.86,70.63,8.68-22.9-6.8-46.76-9.71-70.63-8.68Z"/>
        <path class="cls-20" d="m843.86,1321.29c13.33,3.75,27.23,5.07,41.02,3.87-13.35-3.6-27.23-4.92-41.02-3.87Z"/>
        <path class="cls-28" d="m801.43,1329.2c24.2,5.88,49.15,7.97,74.01,6.73-23.99-7.1-49.13-9.2-74.01-6.73Z"/>
        <path class="cls-20" d="m828.6,1358.16c14.65,3.4,29.69,4.85,44.7,3.7-14.52-4.04-29.71-5.51-44.7-3.7Z"/>
        <path class="cls-28" d="m501.84,1269.78c-58.08-10.24-117.25-8.52-175.98-9.22,37.96,10.18,76.93,16,116.05,19.37,39.02,2.48,78.14,2.46,117.18,4.13,1.68.06,3.38.12,5.07.17-20.46-6.13-41.28-10.92-62.32-14.46Z"/>
        <path class="cls-20" d="m575.25,1325.56c20.8,7.55,42.93,10.4,64.98,9.86-22.45-7.16-41.93-9.52-64.98-9.86Z"/>
        <path class="cls-28" d="m805.75,1469.82c-5.88-2.21-11.79-4.35-17.73-6.42-23.72-8.33-47.96-15.19-72.66-19.94-40.49-7.56-75.51-9.25-118.66-13.59,66.5,25.11,137.62,32.41,207.77,40.2.81-.06,4.57.83,1.28-.26Z"/>
        <path class="cls-20" d="m855.95,1472.78c9.56,3.23,19.6,4.92,29.69,4.97-9.5-3.56-19.56-5.26-29.69-4.97Z"/>
        <path class="cls-21" d="m1195.87,1368.56c-3.72,2.32-244.53,152.01-248.37,154.39l-619.63-123.64-7.87,2.6,621.12,125,11.84,2.38,252.83-159.37-9.93-1.36Z"/>
        <path class="cls-19" d="m375.28,1364.24s7.16-54.18,21.88-89.35c2.08-4.98,4.32-9.57,6.71-13.58-19.05-.44-38.12-.47-57.17-.58-.57,1.44-1.15,2.96-1.74,4.57-10.42,28.47-23.56,82.53-23.56,82.53l35.14-21.09,18.74,37.49Z"/>
      </g>
    </g>
    <g>
      <path class="cls-19" d="m352.12,1129.37c-.5,14.21,1.04,28.58,4.62,42.35l451.58,66.39.2,13.8-454.9-69.99c-8-26.67-9.78-55.63-3.37-82.81l456.72,46.1.2,13.94-452.92-48.85c-1.19,6.24-1.87,12.73-2.12,19.07Z"/>
      <path class="cls-28" d="m352.06,1131.23c.17-6.97.86-14.08,2.17-20.93l452.92,48.85,1.15,78.96-451.58-66.39c-3.41-13.17-4.98-26.9-4.67-40.49Z"/>
      <polygon class="cls-14" points="808.31 1238.11 807.16 1159.15 1258.83 1105.8 1258.07 1171.99 808.31 1238.11"/>
      <polygon class="cls-34" points="1263.48 1182.72 808.51 1251.91 808.31 1238.11 1258.07 1171.99 1258.83 1105.8 807.16 1159.15 806.96 1145.21 1264.52 1093.5 1263.48 1182.72"/>
      <polygon class="cls-3" points="350.24 1099.1 779.21 1063.75 1264.52 1093.5 806.96 1145.21 350.24 1099.1"/>
      <path class="cls-19" d="m1214.57,1192.04s-8.61-37.64-21.29-61.41c-1.79-3.36-3.67-6.45-5.61-9.11,13.37-1.57,26.79-2.85,40.18-4.18.49.98,1,2.02,1.52,3.11,9.22,19.34,22.04,56.5,22.04,56.5l-26.12-12.51-10.71,27.6Z"/>
    </g>
  </g>
  <g>
    <path class="cls-23" d="m577.66,516.31s35.7-7.52,50.4,29.12c14.7,36.63-21.41,29.69-4.26,65.58,17.14,35.89-18.25,26.38-14.05,50.69,6.45,37.32-56.72,60.42-104.47,20.55-47.75-39.87,72.38-165.93,72.38-165.93Z"/>
    <path class="cls-26" d="m1052.37,1037.97c-1.97,21.36-38.57,11.72-56.01,17.97-2.63-5.01-6.36-11.18-12.05-15.7,13.54-6.96,23.95-21.23,30.64-36.36,3.49,3.4,34.15,31.82,37.42,34.09Z"/>
    <path class="cls-23" d="m982.58,1084.8c16.41.18,32.7,1.81,48.94,4.19,14.55,2.14,29,4.87,43.51,7.26,12.51,2.05,25.4,3.91,38.08,3.95,11.17.03,22.39-1.44,32.74-6.19,3.32-1.52,6.48-3.36,9.48-5.51,1.08,3.1.78,4.36.51,7.19-17.31,16.15-57.33,12.42-88.93,7.03-2.74-.46-5.43-.95-8.03-1.43-4.45-.83-19.09-4.46-20.68-1.14-19.08-1.89-56.09-1.59-57.27-5.66.33-6.82.13-2.89,1.15-9.71h.5Zm61.96-38.37h0Zm11.04,6.32h0Zm11.17,5.4h0Zm10.21,4.65h0Zm10.21,4.64h0Zm67.07,16.94c-3.47-20.68-31.27-17.53-53.26-23.91-2.03-.61-4.04-1.25-6.06-1.9l-5.18,8.32c-.56.9-1.72,1.16-2.57.56-.85-.6-1.07-1.82-.51-2.73l4.6-7.39c-2.37-.84-4.73-1.7-7.05-2.62l-4.68,7.52c-.57.91-1.72,1.16-2.57.57-.86-.6-1.08-1.84-.51-2.74l4.23-6.8c-2.29-.97-4.56-2-6.76-3.07l-4.62,7.41c-.56.9-1.7,1.16-2.55.56-.85-.6-1.09-1.82-.51-2.74l4.31-6.93c-2.19-1.15-4.31-2.35-6.36-3.62l-6,7.64c-.66.84-1.84.94-2.61.26-.78-.7-.88-1.95-.23-2.78l5.64-7.18c-2.13-1.45-4.16-2.96-6.09-4.55l-7.75,8.19c-.73.76-1.9.76-2.62-.01-.72-.77-.7-2.03.02-2.79l7.48-7.9c-1.16-1.08-2.26-2.19-3.32-3.34-19.04,18.3-40.46,24.35-60.19,12.17-7.05,11.1-7.27,17.31-5.89,36.16,76.15.86,134.37,31.69,171.61,3.64Z"/>
    <path class="cls-9" d="m982.09,1084.79c-.16-1.66.02-3.01.55-4.05,76.15.86,134.37,31.69,171.61,3.64.58.89.94,2.26,1.08,4.13-2.99,2.15-6.16,3.98-9.48,5.51-10.36,4.76-21.57,6.22-32.74,6.19-12.68-.03-25.57-1.9-38.08-3.95-14.51-2.39-28.96-5.12-43.51-7.26-16.24-2.38-32.53-4.01-48.94-4.19h-.5Zm72.8-46.5l-7.73,8.16c-.73.76-1.9.76-2.62-.01-.72-.77-.7-2.03.02-2.79l7.48-7.9c.9.86,1.85,1.71,2.85,2.54h0Zm9.3,6.58c-1.12-.66-2.19-1.34-3.22-2.03l-5.61,7.14c-.66.83-.56,2.08.23,2.78.77.69,1.95.58,2.61-.26l6-7.64h0Zm12.27,15.2l4.23-6.8c-2.29-.97-4.56-2-6.76-3.07l-4.62,7.41c-.56.9-1.7,1.16-2.55.56-.85-.6-1.09-1.82-.51-2.74l4.31-6.93c-1.29-.67-2.55-1.36-3.79-2.08.02,0,.04.02.06.04,7.67,4.35,17.03,8.39,28.1,12.12l-5.18,8.32c-.56.9-1.72,1.16-2.57.56-.85-.6-1.07-1.82-.51-2.73l4.6-7.39c-2.37-.84-4.73-1.7-7.05-2.62l-4.68,7.52c-.57.91-1.72,1.16-2.57.57-.86-.6-1.08-1.84-.51-2.74Z"/>
    <g>
      <polygon class="cls-35" points="832.76 802.95 680.77 862.12 666.83 731.82 814.1 674.48 819.25 676.59 832.76 802.95"/>
      <rect class="cls-41" x="602.51" y="848.22" width="240.07" height="9.8" transform="translate(-260.8 321.22) rotate(-21.33)"/>
      <polygon class="cls-4" points="832.81 802.76 684.37 860.73 670.71 732.97 817.21 675.77 819.32 676.63 819.32 676.63 832.81 802.76"/>
      <polygon class="cls-18" points="684.6 873.22 612.51 901.35 608.95 892.22 681.03 864.08 684.6 873.22"/>
      <polygon class="cls-35" points="728.85 848.02 701 858.89 699.44 854.88 727.29 843.99 728.85 848.02"/>
      <polygon class="cls-35" points="824.17 810.79 800.35 820.09 798.78 816.08 822.62 806.77 824.17 810.79"/>
      <polygon class="cls-10" points="672.26 734.05 819.32 676.63 817.21 675.77 670.71 732.97 684.37 860.73 685.75 860.19 672.26 734.05"/>
    </g>
    <path class="cls-36" d="m575.44,675.05c18.06,19.49,23.81,44.3,35.96,83.21,7.9,35.12,1.01,73.4,1.01,73.4,0,0-23.38,3.68-37.91-28.73-20.18-37.26-6.77-122.69.94-127.88Z"/>
    <path class="cls-17" d="m553.27,653.69s15.28,10.11,22.18,21.36c7.02,11.26,13.04,51.13,13.04,51.13l-38.23-6.11-9.52-45.77,12.54-20.61Z"/>
    <path class="cls-23" d="m449.13,957.32c-1.37,1.45-2.63,2.93-3.76,4.46-28.7,36.68-19.05,90.37,19.92,116.25h0c1.63,1.12,3.39,2.19,5.14,3.19,14.53,8.28,30.07,14.52,43.98,15.21,35.84,1.78,276.43,2.01,331.31-9.03,11.66-2.36,20.93-11.06,24.06-22.5l13.66-49.56s-105.76-38.44-215.53-56.98c-31.46-5.32-63.03-9.94-91.98-13.06l-.13.02c-45.24-4.91-84.58-6.11-108.26-.51-6.53,1.51-12.66,6.12-18.43,12.51Z"/>
    <path class="cls-17" d="m567.8,665.48s36.21,51.86,26.07,99.78c-10.28,47.9-43.24,93.58-12.16,151.45l-12.15,5.39s-26.07-70.06.75-128.29c26.68-58.24,14.91-85.81-2.51-128.32Z"/>
    <path class="cls-9" d="m437.85,1048.15l89.48-47.48,62.65-33.32c-6.27-21.61-13.53-38.79-19.05-53.99-3.13-8.52-5.63-16.45-7.15-24.17-.75-4.07-1.25-8.07-1.37-12.1-3.39-94.9,28.7-95.25,31.2-127.36l.13-1.32c.25-8.8-2.39-17.46-6.76-25.18-6.15-10.65-13.66-26.01-20.06-39.58-2.76-5.74-5.26-11.13-7.27-15.72-1.01-2.16-1.88-4.15-2.76-5.91l-.75-1.82-.37-.88-.64-1.37c-1-2.16-1.62-3.6-1.87-4.09v-.17l-36.09-8.64c-3.26-.74-6.38-1.32-9.4-1.7-3.63.44-6.13,6.9-9.52,7.7-29.57,6.94-47.24,29.82-62.9,58.29-1.89,5.39-.5,17.61-1.75,23.47-33.84,153.16-4.9,255.1,4.25,315.35Z"/>
    <path class="cls-11" d="m570.84,1094.74c29.41-17.14,208.48-134.96,246.47-172.2,8.09-7.91,14.53-29.7,11.07-40.46l-40.14-49.1s-78.84,26.82-175.91,69c-27.86,12.07-55.26,24.72-80.03,37.3h0c-4.04,2.04-7.98,4.07-11.79,6.1-3.57,1.89-7.14,3.77-10.59,5.66-28.47,15.55-51.45,30.67-64.2,44.07-4.29,4.52-6.91,11.41-8.22,19.49-.23,1.86-.47,3.69-.59,5.52-15.13,78.05,78.15,103.62,133.94,74.63Z"/>
    <path class="cls-11" d="m788.24,832.97h0c28.83-5.04,58.36,4.66,78.73,25.84,58.61,61.1,95.61,97.42,170.33,158.4,0,0-25.96,22.76-57.64,32.81-50.99-31.91-107.98-42.18-155.5-80.71-62.18-50.42-35.91-136.34-35.92-136.34Z"/>
    <path class="cls-24" d="m498.63,647.06c4.88,6.32,10.15,13.33,19.43,21.52l2.38,2.12c5.76,4.87,12.65,9.65,20.67,13.83l.25.13c11.03,5.51,23.19-5.83,18.3-16.73-1.01-2.16-1.88-4.15-2.76-5.91l-.75-1.82-.37-.88-.64-1.37c-1-2.16-1.62-3.6-1.87-4.09v-.17s.75-2.06,1.88-5.56c.25-1,.62-2.17,1-3.4,2.63-8.75,6.39-22.79,8.27-37.23,3.01-23.62-38.72-30.15-38.72-30.15l-.13,1.44c0,3.22-.49,11.58-2.5,22.42-1.88,9.12-4.76,20.01-9.52,31.08h-.01c-1.63,3.69-3.5,7.41-5.5,11.06h-.26c-3.76,2.17-5.63,2.92-9.14,3.72Z"/>
    <path class="cls-17" d="m413.8,931.46c1.37,54.6-2.89,71.71,10.15,127.82,56.51,16.97,147.51-28.13,147.51-28.13-37.43-74.18-45.48-89.29-40.8-170.13.86-14.71,2.21-30.68,5.94-48.67,11.65-56.26-3.76-110.39-16.16-141.65-6.77-17.12-12.66-27.37-12.66-27.37-51.25,12.58-64.15,33.88-76.18,63.94-.76,1.82-1.37,3.65-2.14,5.51-23.07,63.54-17.54,149.79-15.66,218.68Z"/>
    <path class="cls-36" d="m449.16,675.02c9.39-23.26,45.21-24.11,55.86-1.39,3.01,6.39,5.26,13.58,5.77,21.43,3.63,49.23-16.8,186.12-16.8,186.12l-50.46-5.3c-8.6-7.58-13.63-152.28,5.63-200.87Z"/>
    <path class="cls-36" d="m507.77,643.33s19.56,27.48,32.96,81.49c13.41,53.99-8.1,112.52-8.1,112.52-.01,0,.5-71.09-16.81-107.48,8.77-9.85,11.88-11.91,11.88-11.91l-11.95-1.75s-5.59-31.77-7.98-72.87Z"/>
    <path class="cls-40" d="m430.96,709.02l.63-1.74c5.63-13.96,11.4-26.04,21.04-36.24h0c-9.65,10.2-15.41,22.28-21.04,36.24-.26.58-.5,1.16-.63,1.74h0Zm37.97-50.76h0c9.78-5.89,22.3-10.86,38.84-14.92h0c-.25.05-.49.13-.74.19-16.17,4.04-28.45,8.93-38.1,14.72Z"/>
    <path class="cls-26" d="m611.14,1103.44c-10.93-24.86-13.54-47.83,7.31-44.93,11.69.25,21.01-.06,43.86-2.15,11.41,17.56,13.28,31.21,2.83,46.24-29.19-1.45-38-.23-54,.84Z"/>
    <path class="cls-23" d="m593.81,1087.66c-.43,1.05.12,2.24,1.21,2.66,1.08.41,2.32-.11,2.75-1.16,4.99-12.32,7.08-25.9,6.29-40.73-.06-1.12-1.06-2.01-2.23-1.95-1.18.05-2.08,1.01-2.03,2.15.77,14.25-1.22,27.27-5.99,39.03h0Zm14.19,16.96c-8.19,1-16.5,2.35-26.08,1.9-5.85-4.84-10.14-11.73-12.82-19.42-2.83-8.14-3.83-17.16-2.92-25.61.9-8.35,3.68-16.12,8.42-21.84,3.45-4.16,7.95-7.24,13.56-8.7,10.65,4.58,23.28,12.05,28.57,17.59,5.33,2.27,9.43,5.17,12.47,8.44-.56.33-.9.89-.86,1.51.9,12.27-.97,23.44-5.63,33.51-.41.9.14,1.93,1.23,2.3,1.09.36,2.33-.06,2.74-.97,4.44-9.61,6.47-20.12,6.08-31.58,10.66,18.22-4.54,43.35-24.77,42.87h0Zm-32.33,1.36c-4.53-4.9-7.96-10.98-10.26-17.6-3.03-8.68-4.1-18.3-3.12-27.31.98-9.08,4.05-17.58,9.31-23.92,2.97-3.59,6.62-6.48,10.99-8.41-1.29-.45-2.5-.84-3.62-1.14-27.07-6.14-35.08,63.7-12.64,76.62,3.26.81,6.38,1.37,9.35,1.75h0Zm39.82-15.07c-.42.94.14,2.01,1.22,2.39,1.09.37,2.33-.08,2.74-1.02,4.91-10.99,6.9-23.12,6-36.4-.06-1.02-1.08-1.81-2.24-1.78-1.18.04-2.07.9-2.01,1.91.87,12.77-1.04,24.41-5.72,34.89h0Zm-7.22-1.09c-.42.98.13,2.09,1.21,2.48,1.09.4,2.33-.08,2.75-1.06,4.94-11.43,6.97-24.04,6.1-37.84-.06-1.05-1.06-1.88-2.25-1.84-1.17.04-2.07.94-2.01,1.98.84,13.27-1.09,25.36-5.8,36.27h0Zm-7.24-1.08c4.74-11.33,6.71-23.89,5.9-37.65-.05-1.09.85-2.03,2.02-2.07,1.17-.04,2.18.81,2.23,1.9.84,14.3-1.22,27.41-6.19,39.28-.42,1.02-1.65,1.51-2.74,1.11-1.09-.4-1.63-1.56-1.22-2.57Z"/>
    <path class="cls-9" d="m581.91,1106.52c-5.85-4.84-10.14-11.73-12.82-19.42-2.83-8.14-3.83-17.16-2.92-25.61.9-8.35,3.68-16.12,8.42-21.84,3.45-4.16,7.95-7.24,13.56-8.7-1.95-.84-3.83-1.59-5.58-2.2-4.37,1.92-8.02,4.82-10.99,8.41-5.26,6.34-8.33,14.84-9.31,23.92-.98,9.01.1,18.62,3.12,27.31,2.3,6.62,5.73,12.71,10.26,17.6,2.15.28,4.22.45,6.25.53Z"/>
    <path class="cls-9" d="m593.81,1087.66c-.43,1.05.12,2.24,1.21,2.66,1.08.41,2.32-.11,2.75-1.16,4.99-12.32,7.08-25.9,6.29-40.73-.06-1.12-1.06-2.01-2.23-1.95-1.18.05-2.08,1.01-2.03,2.15.77,14.25-1.22,27.27-5.99,39.03h0Zm35.39-30.68c1.42,1.52,2.6,3.12,3.56,4.77.39,11.44-1.64,21.97-6.08,31.58-.41.9-1.64,1.33-2.74.97-1.09-.37-1.64-1.4-1.23-2.3,4.66-10.07,6.54-21.24,5.63-33.51-.04-.62.3-1.18.86-1.51h0Zm-13.71,33.94c-.42.94.14,2.01,1.22,2.39,1.09.37,2.33-.08,2.74-1.02,4.91-10.99,6.9-23.12,6-36.4-.06-1.02-1.08-1.81-2.24-1.78-1.18.04-2.07.9-2.01,1.91.87,12.77-1.04,24.41-5.72,34.89h0Zm-7.22-1.09c4.71-10.91,6.64-23.01,5.8-36.27-.06-1.05.84-1.94,2.01-1.98,1.18-.04,2.18.78,2.25,1.84.87,13.8-1.16,26.41-6.1,37.84-.42.98-1.65,1.46-2.75,1.06-1.08-.39-1.63-1.5-1.21-2.48h0Zm-7.24-1.08c4.74-11.33,6.71-23.89,5.9-37.65-.05-1.09.85-2.03,2.02-2.07,1.17-.04,2.18.81,2.23,1.9.84,14.3-1.22,27.41-6.19,39.28-.42,1.02-1.65,1.51-2.74,1.11-1.09-.4-1.63-1.56-1.22-2.57Z"/>
    <path class="cls-22" d="m884.38,1015.71c35.43,17.71,32.03,84.65-18.36,87.68-1.63.1-3.26.13-4.88.13-36.09,0-148.02-3.77-227.46,1.06-.01,0-13.23-13.09-5.22-49.55,60.6-6.77,95.84-26.76,130.94-38.56,32.64-10.97,93.61-16.44,124.98-.76Z"/>
    <path class="cls-36" d="m608.19,701.38c1.79-4.4,32.17,1.05,34.5.77-.02.73,4.57,111.48,1.23,117.21-10.37,22.1-44.41,21.88-51.08,1.74-1.03-2.36-1.94-4.91-2.46-7.7-2.65-16.76,15.97-101.35,17.81-112.02Z"/>
    <g>
      <path class="cls-24" d="m683.36,894.27c4.84-2.71,5.98-7.14,4.91-9.63-.85-1.98-2.97.71-8.98,1.51-6,.8-17.03.08-17.03.08l5.73,10.59s9.61.65,15.37-2.56Z"/>
      <path class="cls-26" d="m598.99,862.36s11.9-2.61,22.31-.01c10.41,2.61,24.76,14.16,33.22,17.57,8.46,3.41,21.7,12.02,23.61,14.87,1.91,2.85,6.44,4.85,9.86,8.56,3.41,3.71,7.63,4.53,8.35,11.76.73,7.24,1.98,12.96,1.46,17.87-.51,4.93-1,12.28-2.98,12.68-1.98.4-5.89-2.09-4.94-14.02.81-10.46-2.8-12.6-4.73-15.66-1.92-3.05-6.59-7.04-6.59-7.04,0,0,6.74,14.53,6,17.25-.74,2.72-13.99,10.34-15.99,10.54-2.01.2-7.56-5.09-7.56-5.09,0,0-3.45.51-6.98-.35-3.54-.86-4.98-3.06-4.98-3.06,0,0-4.93.41-8.53-3.19-1.03-1.03-.57-2.59-.85-3.37-.28-.78-3.03-7.91-3.03-7.91,0,0-8.77-7.77-17.64-14.34-9.21-6.83-8.08-11.48-8.08-11.48,0,0-.67-1.06-6.17.71-5.5,1.77-9.31,2.67-9.31,2.67-3.24-2.19-4.68-4.95-5.6-12.23-1.46-11.44,9.19-16.75,9.19-16.75Z"/>
      <path class="cls-24" d="m643.73,920.97c.41-1.39-3.77-6.71-1.98-8.62.64-.42,3.15-2.31,3.87-1.81,0,0,1.41,3.91,1.54,6.24.14,2.46.81,4.99,0,6.93-1.01,2.3-4.54,3.47-6.34,1.62-.75-.76-1.54-1.05-3.35-4.02-1.34-2.2-2.98-6.41-3.06-8.22-.05-1.33,2.6-.37,4.41.64.76.43,4.18,5.9,4.9,7.24Z"/>
      <path class="cls-24" d="m654.17,909.78c.65-.78,3.83,7.83,4.13,8.78.75,2.39,2.01,5.63,2,8.33-.02,2.77-2.47,5.02-5.35,4.6-2.15-.31-4.55-1.33-5.93-3.24,3.55.31,5.41-.36,5.97-4.13.57-3.93-.82-14.34-.82-14.34Z"/>
      <path class="cls-24" d="m673.65,917.01c1.87,2.45,2.14,3.9,3.57,6.63.67,1.26,1.53,2.33.74,3.55-.65,1.01-2.9,2.25-3.97,2.92-3.47,2.14-6.39,5.23-7.2,5.42-.85.2-3.87-1.27-4.9-3.21,1.77.25,4.13-.61,5.14-1.71,1.14-1.25,1.33-3.01,1.55-4.63.42-3.07-.19-6.58-.62-9.76-.45-3.26-2.5-9.43-2.5-9.43,3.09,1.81,6.87,8.49,8.2,10.22Z"/>
      <path class="cls-29" d="m644.5,912.38c.06-.13.09-.25.11-.36.01-.01.03-.03.04-.04l-.15.41Z"/>
      <path class="cls-24" d="m613.33,891.06c.99,1.33,14.88,15.85,28.97,19.07,1.01.23,3.32.41,3.32.41-6.29,7.02-13.92.85-17.41-1.6-5.07-3.56-11.88-9.65-15.44-14.84-1.12-1.64-3.34-5.98-1.9-7.78.22,1.62,1.6,3.57,2.46,4.74Z"/>
    </g>
    <path class="cls-36" d="m472.38,894.54c8.41,1.86,20.84,2.84,29.2,3.62,16.66,1.57,42.86,3.5,66.53,2.89,14.16-.36,27.32-1.62,37.22-4.37.49-1.21.88-2.46,1.26-3.69,3-11.51,1.62-28.57.75-33.85-.26-1.67-.5-2.65-.5-2.65-32.68-.27-67.8-6.94-100.06-11.1-75.18-17.23-88.05,31.88-34.4,49.15Z"/>
    <g>
      <path class="cls-26" d="m608.68,700.79c.5-5.46,1.18-14.3,1.3-22.49,1.05-5.73-1.04-10.62-.92-15.57.11-4.96,8.93-29.83,9.54-33.99.6-4.15,2.08-10.07,1.4-13.04-.69-2.98,1.77-6.66,4.24-3.7,2.47,2.98,4.13,8.18,4.63,14.62.51,6.45.01,9.93.01,9.93,0,0,2.18-4.82,5.16-7.61,2.98-2.78,6.58-7.71,8.82-10.68,2.25-2.96,5.12-7.08,5.12-7.08,1.19-2.77,1.17-5.33,2.64-8.66,1.33-3.03,5.32-4.16,5.59,1.57.09,1.93.53,4.24-.4,6.77-1.26,3.5-2.48,8.12-4.16,10.45-2.91,4-7.55,12.14-7.55,12.14l.59.75s4.48-6.74,6.16-9.73c1.68-2.98,3.88-6.32,4.53-7.96,2.19-5.46,4.69-18.3,9.26-17.34,3.26.69.57,14.88-.99,18.9-3.04,7.9-12.58,24.41-12.58,24.41,0,0,4.41,15.53,5.12,17.61.71,2.09-2.01,9.35-5.42,13.76-6.49,8.36-9.09,6.64-9.48,10.45-.26,2.53.15,11.89.45,17.85-5.32-.41-29.08-4.37-33.09-1.34Z"/>
      <path class="cls-26" d="m647.47,645.15c.15-2.51,13.43-12.51,15.47-14.9,2.05-2.38,4.68-9.84,4.99-11.56.83-4.49,4.94-6.03,5.32-1.7.34,3.99-2.79,14.58-3.86,17.86-1.07,3.29-14.84,17.27-14.84,17.27l-7.08-6.97Z"/>
      <path class="cls-26" d="m667.02,642.9c1.72-1.79,5.62-5.11,6.11-6.13,1.45-3.01,5.63-4.54,5.68-1.79.01,1.34-2.59,8.9-5.9,12.7-3.31,3.8-17.87,14.79-17.87,14.79l-3.25-11.18s11.59-4.56,15.23-8.38Z"/>
      <path class="cls-24" d="m655.57,658.92c-.91,6.21-4.09,10.56-8.44,14.47-4,3.59-6.26,5.87-11.48,9.81-.09.05-.16.14-.26.21.03-.05.05-.11.11-.16l-.16.2c-.06.04-.12.08-.17.14.05,0,.08-.03.11-.05,5.21,1.12,8.36-2.73,12.06-6.1,3.45-3.12,7.35-8.1,8.37-13.13.42-2.11,1.03-3.57-.14-5.39Z"/>
      <path class="cls-29" d="m627.47,646.07l.15-1.12c-.1.36-.14.75-.15,1.12Z"/>
      <path class="cls-24" d="m631.56,656.84c-.6-3.26-4.16-7.16-4.09-10.77l-.14,1.06c-.34,3.53,1.88,6.8,2.83,10.11,1.04,3.61-.95,10.34-2.17,13.37,2.69-2.12,4.57-8.36,3.56-13.78Z"/>
      <path class="cls-24" d="m643.83,655.74c-.83-1.67-1.82-3.17-2.68-4.88-1.05-2.09-1.57-3.34-3.43-4.52-.94-.6-3.26-3.07-4.22-2.73.04.67.19.75.04.7l.06.17c.64,1.56,2.23,2.3,3.49,3.21,1.39,1.02,2.21,2.23,3.15,3.8,1.73,2.92,2.94,8.17,5.95,9.7.46-.94-1.81-4.39-2.35-5.44Z"/>
    </g>
    <path class="cls-27" d="m579.41,531.88s.9-.34,2.65-.83c1.74-.48,4.34-1.06,7.66-1.53,3.31-.42,7.39-.62,11.91.06,2.25.32,4.59.95,6.93,1.86,2.34.87,4.68,2.09,6.88,3.7,4.43,3.17,8.1,8.02,10.74,13.75.65,1.43,1.25,2.97,1.79,4.44.28.82.56,1.63.84,2.45.23.78.46,1.56.7,2.35.9,3.16,1.54,6.49,1.49,9.66-.08,1.57-.27,3.12-.72,4.58-.46,1.47-1.14,2.87-2.02,4.26-1.7,2.81-4.44,5.61-6.54,9.61-1.03,1.98-1.78,4.23-2.09,6.52-.3,2.29-.22,4.54.06,6.7.61,4.31,2.07,8.22,3.68,11.96l2.43,5.3c.72,1.65,1.37,3.37,1.88,5.05,1.01,3.37,1.38,6.72.5,9.37-.84,2.67-3.22,4.9-6.13,7.14-2.87,2.23-6.21,4.59-8.69,7.98-2.53,3.34-3.86,7.5-4.08,11.34-.26,3.86.29,7.49,1.06,10.87l.32,1.27.16.62.02.08v-.04s.02.15.02.15l.05.3c.21.9.21,1.4.26,2.06.04,1.37-.24,2.77-.64,4.11-.8,2.71-2.33,5.18-3.95,7.41-3.37,4.4-7.56,7.65-11.59,9.84-4.05,2.2-7.98,3.32-11.27,3.68-3.3.4-5.95.09-7.69-.31-.89-.16-1.54-.4-1.98-.54-.45-.14-.68-.2-.68-.2l-.15.34s.24.09.68.25c.45.16,1.11.43,2,.65,1.77.49,4.46.95,7.89.71,3.41-.26,7.52-1.26,11.79-3.38,4.25-2.12,8.72-5.3,12.48-9.83,1.82-2.29,3.53-4.89,4.52-7.93.48-1.51.85-3.11.85-4.77.03-1.68-.41-3.29-.75-4.91-.64-3.25-1.04-6.68-.7-10.13.3-3.46,1.54-6.9,3.79-9.72,2.21-2.85,5.26-4.99,8.26-7.23,2.96-2.22,6.12-4.82,7.44-8.61,1.34-3.76.75-7.85-.31-11.57-1.05-3.77-2.84-7.3-4.39-10.82-1.51-3.55-2.8-7.22-3.38-11-.26-1.89-.33-3.8-.11-5.68.26-1.87.85-3.68,1.7-5.34,1.7-3.37,4.36-6.15,6.33-9.4.99-1.62,1.79-3.35,2.32-5.16.51-1.81.7-3.68.75-5.53-.02-3.7-.8-7.27-1.81-10.64-1.02-3.38-2.33-6.56-3.8-9.58-3.01-6-7.14-11.11-12.04-14.37-4.88-3.31-10.23-4.85-14.95-5.3-4.75-.46-8.92-.02-12.27.58-3.35.62-5.93,1.42-7.66,2.02-1.73.6-2.62,1.02-2.62,1.02l.16.34Z"/>
    <path class="cls-25" d="m579.52,536.72s.92-.31,2.7-.72c1.77-.4,4.41-.89,7.78-1.15,3.38-.26,7.51-.26,12.13.53,4.58.87,9.69,2.43,14.47,5.54,2.39,1.53,4.68,3.42,6.8,5.63,2.09,2.24,3.96,4.81,5.65,7.6,1.7,2.82,2.98,5.85,4.32,9.11,1.21,3.13,2.3,6.55,2.57,9.94.31,3.42-.34,6.75-2.4,9.53-1.94,2.85-5.14,5.21-7.27,9-1.05,1.88-1.65,4.08-1.72,6.22-.08,2.15.19,4.25.71,6.24,1,3.99,2.74,7.63,4.59,11.13.91,1.76,1.81,3.4,2.57,5.13.77,1.73,1.44,3.48,1.93,5.24.98,3.53,1.16,7.19-.42,10.18-1.52,3.04-4.49,5.34-7.38,7.76-2.91,2.4-5.88,5.15-7.67,8.69-1.86,3.51-2.37,7.47-2.15,11.1.19,3.65,1.06,7.16,2.02,10.34.77,2.91-.11,6.04-1.55,8.65-1.46,2.63-3.42,4.9-5.52,6.82-4.25,3.83-9.07,6.3-13.56,7.56-4.51,1.3-8.7,1.31-11.98.6-3.32-.7-5.68-2.04-7.17-3.06-1.48-1.03-2.19-1.71-2.19-1.71l-.13.13s.7.71,2.18,1.78c1.49,1.05,3.86,2.46,7.21,3.23,3.34.78,7.62.86,12.24-.37,4.59-1.21,9.55-3.63,13.99-7.47,2.21-1.93,4.28-4.23,5.85-7,1.54-2.73,2.59-6.11,1.75-9.45-.91-3.22-1.68-6.59-1.81-10.09-.16-3.49.4-7.15,2.15-10.35,1.71-3.23,4.5-5.77,7.38-8.14,2.87-2.38,6.04-4.74,7.86-8.24,1.87-3.49,1.63-7.7.61-11.41-1.02-3.78-2.75-7.33-4.57-10.77-1.81-3.43-3.45-7-4.39-10.74-.97-3.69-1.14-7.79.78-11.14,1.82-3.35,4.95-5.73,7.1-8.86,2.28-3.09,3.02-7.03,2.64-10.67-.33-3.68-1.46-7.14-2.75-10.42-1.34-3.25-2.79-6.41-4.56-9.26-1.78-2.85-3.76-5.46-5.96-7.74-2.22-2.25-4.63-4.16-7.13-5.72-4.98-3.15-10.27-4.64-14.95-5.36-4.72-.67-8.9-.54-12.3-.19-3.4.35-6.03.93-7.8,1.38-1.78.46-2.69.8-2.69.8l.05.18Z"/>
    <path class="cls-16" d="m514.93,589.6s1.12-12.33-10.59-11.41c-11.72.92-11.23,46.74,7.75,42.7,18.97-4.04,2.84-31.3,2.84-31.3Z"/>
    <path class="cls-38" d="m507.96,616.83c-.62-.9-1.18-1.84-1.63-2.8-.43-.97-.76-1.98-.7-2.89-.01-.24.09-.42.11-.64.05-.19.2-.34.26-.51.09-.17.29-.28.41-.42l.54-.33c.33-.24.87-.29,1.28-.46l1.47-.23.79-.12.15-.83c.29-1.67.48-3.33.65-4.99.17-1.67.28-3.35.3-5.04.02-1.68.03-3.38-.15-5.08-.17-1.71-.41-3.45-1.06-5.21-.34-.87-.81-1.79-1.71-2.59-.45-.39-1.04-.69-1.67-.82-.31-.03-.64-.07-.93-.04-.33.05-.5.04-.95.18l-1.16.47c-.45.28-.92.56-1.32.87-.73.65-1.35,1.4-1.75,2.25-.42.84-.7,1.71-.85,2.57-.19.86-.21,1.73-.22,2.59,0,1.71.28,3.39.75,4.99-.03-1.66.09-3.31.36-4.9.14-.78.33-1.57.59-2.29.23-.74.59-1.43.98-2.02.41-.61.9-1.09,1.45-1.5.27-.16.54-.27.78-.43l1.18-.35h.28s.3.03.3.03c.17.05.32.14.49.3.32.33.64.92.86,1.61.44,1.36.68,2.94.8,4.51.09,1.59.18,3.2.17,4.82-.02,3.24-.15,6.53-.36,9.78l.93-.95c-.58.15-1.16.29-1.73.45-.58.28-1.17.4-1.7.86-.26.21-.55.35-.76.64-.22.29-.46.54-.6.86-.12.33-.29.66-.32,1-.01.34-.09.69-.02,1,.17,1.29.75,2.33,1.42,3.24.66.91,1.45,1.71,2.29,2.4Z"/>
    <path class="cls-26" d="m513.35,628.74c-27.65-8.35-26.65-53.96-11.35-45.62-3.55-89.37,101.73-84.87,115.5-14.6,8.56,26.98-3.68,32.04-2.66,46.82,1.84,26.79-16.8,39.38-33.27,54.19-9.51,8.55-16.7,7.17-32.41-.94-15.91-8.21-27.32-22.55-35.8-39.85Z"/>
    <path class="cls-13" d="m545.35,597.58s7.91-8.18,13.86-11.87c13.58-3.08,27.77-3.35,31.42-3.37l.71.89-.64,2.77-1.12.89c-4.05.02-20.6.27-28.88,2.79-9.56,4.19-15.36,7.9-15.35,7.9Z"/>
    <path class="cls-9" d="m582.81,612.66s-.99.76-3.57,1.41l-1.23.26c-2.01.36-4.77.62-8.46.49-1.19-.03-2.48-.12-3.88-.25-1.09-.1-2.24-.22-3.46-.39-7.03-2.2-8.37-7.92-8.37-7.92,0,0,4.8-5.13,12.2-7.59,2.06-.7,4.31-1.18,6.73-1.29l2.19.9c1.05.53,2.02,1.18,2.91,1.91,2.42,1.92,3.67,5.27,4.29,8.02.59,2.47.65,4.44.67,4.44Z"/>
    <path class="cls-13" d="m609.44,587.72l-2.12,1.9.11,1.42c1.57,1.05,4.99,3.6,9.93,8.94,1.74-1.75-.32-6.98-6.75-12.28l-1.17.02Z"/>
    <path class="cls-9" d="m612.49,615.93c-.51.12-2.3.2-4.69.03-1.62-.13-3.5-.36-5.46-.79l-1.97-.51c-.08-4.65,1.17-9.1,1.17-9.1,0,0,.47-1.6,1.21-3.66h0c1.44-.02,2.74.06,3.88.25,3.34.47,5.6,1.51,6.97,2.38,1.14.73,1.66,1.31,1.66,1.31-.7,1.71-1.28,3.11-1.71,4.18-.64,1.63-.98,2.46-.98,2.46v.09s0,.92,0,.92l-.08,2.45Z"/>
    <path class="cls-1" d="m572.06,614.85c-.19-2.02.26-4.34,1.39-6.53,1.44-2.79,3.67-4.77,5.96-5.59.32.16.62.33.92.5.88,1.6,1.45,3.39,1.81,4.98.58,2.47.65,4.44.65,4.44,0,0-.98.76-3.56,1.41l-1.23.26c-1.53.28-3.48.49-5.94.53Z"/>
    <path class="cls-9" d="m576.03,611.24c-.71,1.36-2.37,1.91-3.76,1.2-1.35-.7-1.89-2.39-1.19-3.75.7-1.35,2.38-1.89,3.73-1.19,1.39.71,1.9,2.38,1.21,3.73Z"/>
    <path class="cls-1" d="m605.17,615.68c.08-1.05.38-2.16.92-3.22,1.39-2.68,3.91-4.26,6.13-4.03.87,0,1.52.09,1.92.16l-.58,1.44c-.65,1.63-1,2.46-1,2.46v.09s0,.92,0,.92l-.08,2.45c-.51.12-2.3.2-4.69.03-.81-.06-1.7-.16-2.63-.29Z"/>
    <path class="cls-9" d="m609.13,613.94c-.53,1.05-1.81,1.47-2.87.92-1.04-.53-1.45-1.82-.91-2.87.54-1.04,1.82-1.45,2.87-.91,1.06.55,1.46,1.82.92,2.87Z"/>
    <path class="cls-13" d="m553.84,606.26c1.06-1.46,2.36-2.74,3.76-3.9,1.41-1.15,2.94-2.15,4.56-2.98l1.23-.59,1.27-.54,1.3-.45.65-.22.66-.17,1.33-.32,1.37-.2.69-.09.69-.03,1.37-.05h.03l.19.02,1.58.73,1.43.92,1.3,1.07,1.18,1.2-1.44-.84-1.45-.75-1.49-.62-1.51-.46.23.03-1.29.19-.64.08-.63.12-1.27.28-1.24.34-.61.17-.61.22-1.23.42-1.2.48-1.18.53c-3.15,1.44-6.15,3.26-9.04,5.4Z"/>
    <path class="cls-13" d="m602.76,601.89l3.43-.51c1.15.02,2.32.15,3.43.48,1.12.31,2.22.78,3.21,1.45.97.64,1.88,1.46,2.42,2.52-1.05-.5-2.05-.91-3.06-1.28l-3.04-.97-3.13-.81c-1.06-.27-2.15-.52-3.26-.88Z"/>
    <path class="cls-15" d="m597.95,629.51c-2.82-2.81-4.72-7-5.15-10.2,2.66,4.27,5.56,8.37,9.48,8.86.99,3.42-4.98,5.96-11.25,6.07,4.13-1.14,7.75-3.49,6.92-4.73Z"/>
    <path class="cls-32" d="m592.79,619.33h.01c2.65,4.26,5.55,8.36,9.47,8.85.15.53.14,1.03-.01,1.5-3.34-.57-6.15-2.79-8.47-6.66-.5-1.29-.84-2.56-1-3.69Z"/>
    <path class="cls-37" d="m494.29,595c.09-4.44,2.65-7.59,5.36-7.98,3.63-.29,7.41,2.85,9.8,7.57,2.37,5.05,2.3,8.81,1.94,14.94-.09,4.44,2.78,7.49,5.49,8.12,0,0,2.46,1.63,1.05,3.53-1.39,1.91-3.36-1.39-5.62-1.29-2.26.09-5.69,1.78-11.25-3.27-5.55-5.04-6.73-13.05-6.83-18.88l.06-2.74Z"/>
    <path class="cls-32" d="m507.8,614.67c-.82-2.1-.48-5.21.17-7.23.72-2.22,2.3-3.42.88-6.12-.92-1.76-3.02-1.44-4.01-.12-1.06,1.43-1.51,3.4-1.51,5.56,0,1.06.09,2.12.21,3.18.05.48.37,1.58.15,2.01-.44.85-.7-.8-.8-1.31-.3-1.72-.4-3.73-.23-5.47.27-2.98,2.03-4.63,1.97-7.66-.11-6.86-5.55-8.91-8.69-5.75-.87,1.79-1.38,4.21-1.7,6.58,0-.19,0-.4-.02-.58l.06-2.74c.09-4.44,2.65-7.59,5.36-7.98,3.63-.29,7.41,2.85,9.8,7.57,2.37,5.05,2.3,8.81,1.94,14.94-.06,3.23,1.44,5.72,3.31,7.08-2.22,1.95-5.52,1.64-6.91-1.94Z"/>
    <path class="cls-15" d="m501.06,616.62c-5.02-4.57-6.46-11.56-6.76-17.17,3.46,15.96,13.03,19.99,15.41,20.76-2.1.17-4.88-.16-8.65-3.59Z"/>
    <path class="cls-15" d="m494.28,595c.08-4.4,2.28-7.51,5.01-8.32,3.18-.93,6.67,1.94,8.98,5.15,2.49,3.47,3.67,8.09,3.67,13.04.01,2.82-.55,5.6.46,8.24.92,2.39,2.83,3.73,4.52,4.3.17.06.12.49-.05.46-2.25-.44-4.85-2.48-5.6-6.02-.45-2.14-.11-4.41-.05-6.59.05-2.5-.17-4.95-.84-7.29-1.42-4.88-4.53-8.55-7.84-10.02-3.62-1.61-7.83.92-8.23,7.04,0,.02-.02.02-.02,0Z"/>
    <path class="cls-23" d="m594.15,550.77s-17.74-11.67-18.96,3.19c-1.22,14.85-7.07,15.6-23.14,12.91-16.08-2.7-25.28,14.3-15.61,28.65,9.66,14.36-27.32,15.11-9.86,36,17.46,20.88-17.63,9.67-7.16,30.54,10.47,20.87,8.84,28.04,12.43,34.86,0,0-4.79-2.73-8.22-8.04-.7,2.83-.34,6.5,10.62,16.54-16.05-7.56-14.58-19.76-23.07-27.39-18.37-16.55-17.33-24.05-54.19-13.81,5-11.04,17.97-5.69,11.91-18.87-12.18-26.55-19.65-37.82,3.73-48.38,23.38-10.55-13.87-34.75,18.83-47.8,32.69-13.04,8.86-41.37,52.02-41.08,43.17.3,52.17,26.15,50.67,42.68Z"/>
    <path class="cls-25" d="m579.47,543.4s-.82-.39-2.45-.85c-1.63-.39-4.14-1.11-7.46-.41-1.63.35-3.46,1.25-4.87,2.89-1.39,1.63-2.22,3.82-2.61,6.12-.32,2.34-.46,4.46-1.03,6.72-.53,2.18-1.31,4.44-2.83,5.68-1.46,1.26-3.82,1.67-6.48,1.61-2.71-.04-5.45-.44-8.64-.9l-1.14-.14-1.43-.04c-.93,0-1.82.06-2.74.21-1.84.29-3.67.9-5.37,1.84-3.42,1.85-6.05,5.02-7.62,8.56-3.18,7.13-2.3,15.89,1.97,22.58l.68,1.11c.12.23.23.45.36.74.22.53.32,1.01.34,1.44.03.83-.3,1.74-1.11,2.85-1.63,2.23-4.51,4.43-7.19,7.13-1.34,1.39-2.7,2.93-3.82,4.86-1.11,1.91-1.88,4.3-1.86,6.71-.01,2.39.67,4.6,1.56,6.5.91,1.9,2.03,3.56,3.22,5.06,1.18,1.47,2.09,2.6,2.9,3.9.8,1.23,1.34,2.53,1.44,3.38.05.83-.04,1.22-.88,2.08-.83.8-2.15,1.61-3.56,2.43-1.43.84-2.98,1.71-4.5,2.87-1.53,1.15-3.07,2.74-3.95,4.83-.89,2.08-.92,4.35-.57,6.22.37,1.88,1.02,3.53,1.77,5.03.74,1.46,1.27,2.49,1.58,3.69.31,1.17.39,2.26.16,3.28,1.19.16,3.01-2.94.76-8.12-1.23-2.68-2.2-5.96-.91-8.84,1.32-2.88,4.4-4.49,7.25-6.08,1.45-.83,2.95-1.65,4.25-2.83,1.32-1.14,2.22-2.96,2.02-4.79-.16-1.81-.94-3.45-1.84-4.96-.9-1.51-2.02-2.9-3.09-4.26-2.1-2.7-3.95-5.89-3.95-9.36-.02-3.49,2.21-6.52,4.67-8.96,2.46-2.53,5.36-4.68,7.52-7.62,1.05-1.46,1.85-3.26,1.74-5.14-.06-1.87-.99-3.59-1.93-5.02-3.74-5.81-4.62-13.32-2.01-19.39,1.27-3.01,3.43-5.62,6.16-7.2,2.72-1.61,5.89-2.12,8.9-1.77,3.02.36,6.01.69,8.91.64,2.85-.05,5.87-.55,7.94-2.47,2.06-1.91,2.79-4.59,3.25-6.96.47-2.4.5-4.76.7-6.88.26-2.12.9-4.08,2.03-5.53,1.14-1.44,2.67-2.31,4.14-2.69,2.97-.78,5.46-.32,7.06-.03,1.62.34,2.45.67,2.45.67l.12-.36Z"/>
    <path class="cls-39" d="m443.07,667.58s.01-.28.02-.81c.04-.54,0-1.35.14-2.37.26-2,1.07-4.94,3.39-7.88,1.19-1.46,2.7-2.9,4.44-4.49,1.67-1.6,3.82-3.39,4.97-6.41.12-.36.3-.74.37-1.14l.16-1.21c.17-.83,0-1.62-.05-2.46-.01-.86-.36-1.58-.55-2.4-.21-.85-.46-1.47-.72-2.21-1.02-2.89-2.11-5.84-3.04-8.96-.99-3.12-1.74-6.41-2.05-9.72-.3-3.32.19-6.52,1.95-9.17,1.73-2.67,4.66-4.88,7.93-6.84.78-.52,1.65-.98,2.51-1.44.86-.47,1.7-.98,2.61-1.42.89-.46,1.78-.92,2.68-1.39,1.22-.7,1.76-.87,2.97-1.75,1.12-.73,2.05-1.58,2.95-2.52.42-.51.87-1,1.25-1.56.34-.59.74-1.15,1.02-1.77,1.2-2.48,1.51-5.21,1.43-7.66-.23-4.93-1.62-9.15-2.32-13.23-.76-4.07-.84-7.9.72-10.92.75-1.53,1.92-2.9,3.36-4.1.67-.64,1.53-1.14,2.3-1.71.88-.48,1.69-1.03,2.62-1.47l2.91-1.46,1.49-.74c.51-.26,1.09-.61,1.61-.91,2.19-1.24,4.09-2.69,5.97-4.31,3.67-3.28,6.51-7.5,8.36-11.79,1.91-4.28,3.06-8.56,4.66-12.15,1.58-3.62,3.77-6.34,6.85-8.1,3.1-1.74,6.82-2.61,10.59-3.12.95-.11,1.89-.2,2.84-.31.95-.06,1.9-.11,2.84-.16l.35-.02h2.44c.97.02,1.93.03,2.89.05,1.96-.06,3.65.25,5.43.39.87.09,1.75.14,2.61.28.86.19,1.7.36,2.55.53.85.17,1.68.33,2.51.51.8.26,1.6.5,2.39.76.78.25,1.57.5,2.34.75.75.29,1.47.66,2.19.98,5.77,2.63,10.34,6.46,13.4,10.66,3.09,4.19,4.72,8.61,5.63,12.29.94,3.71,1.12,6.75,1.26,8.81-.01,2.08-.01,3.19-.01,3.19l.38.03s.06-1.11.18-3.21c-.03-2.08,0-5.18-.82-9.01-.78-3.82-2.25-8.44-5.3-12.99-3.01-4.54-7.69-8.86-13.74-11.77-6.03-2.95-13.27-4.53-20.92-4.97-1.91-.05-3.83-.17-5.82-.17-.99.03-1.98.06-2.98.09-1,.09-2,.16-2.99.25-4,.41-8.12,1.32-11.87,3.35-1.83,1.05-3.53,2.4-4.93,4.04-1.39,1.64-2.49,3.53-3.39,5.5-1.81,3.95-2.96,8.16-4.78,12.1-1.76,3.97-4.29,7.63-7.59,10.53-1.65,1.42-3.43,2.74-5.35,3.8-.93.57-1.93,1.06-2.94,1.55l-3.01,1.46c-1.01.48-1.94,1.13-2.93,1.67-.89.69-1.87,1.27-2.68,2.05-1.72,1.46-3.22,3.24-4.19,5.29-2.06,4.14-1.75,8.91-.91,13.18.81,4.32,2.17,8.49,2.38,12.73.1,2.11-.16,4.22-1.04,6.08-.86,1.87-2.35,3.39-4,4.54-1.68,1.18-3.57,2.05-5.38,3.03-1.8.98-3.6,1.96-5.28,3.07-3.37,2.17-6.6,4.66-8.64,8.01-2.08,3.34-2.5,7.32-2.06,10.89.44,3.6,1.33,7,2.42,10.15,1.04,3.18,2.21,6.17,3.35,8.98.28.71.58,1.41.78,2.11.18.7.53,1.36.56,2.07.06.7.26,1.39.13,2.06l-.1,1.01c-.05.33-.19.63-.28.95-.85,2.52-2.74,4.34-4.36,5.99-1.67,1.65-3.18,3.22-4.36,4.8-2.33,3.21-2.96,6.38-3.12,8.47-.06,1.05.01,1.85,0,2.39.01.53.02.81.02.81h.37Z"/>
    <path class="cls-27" d="m443.07,667.58s.01-.28.02-.81c.04-.54,0-1.35.14-2.37.26-2,1.07-4.94,3.39-7.88,1.19-1.46,2.7-2.9,4.44-4.49,1.67-1.6,3.82-3.39,4.97-6.41.12-.36.3-.74.37-1.14l.16-1.21c.17-.83,0-1.62-.05-2.46-.01-.86-.36-1.58-.55-2.4-.21-.85-.46-1.47-.72-2.21-1.02-2.89-2.11-5.84-3.04-8.96-.99-3.12-1.74-6.41-2.05-9.72-.3-3.32.19-6.52,1.95-9.17,1.73-2.67,4.66-4.88,7.93-6.84.78-.52,1.65-.98,2.51-1.44.86-.47,1.7-.98,2.61-1.42.89-.46,1.78-.92,2.68-1.39,1.22-.7,1.76-.87,2.97-1.75,1.12-.73,2.05-1.58,2.95-2.52.42-.51.87-1,1.25-1.56.34-.59.74-1.15,1.02-1.77,1.2-2.48,1.51-5.21,1.43-7.66-.23-4.93-1.62-9.15-2.32-13.23-.76-4.07-.84-7.9.72-10.92.75-1.53,1.92-2.9,3.36-4.1.67-.64,1.53-1.14,2.3-1.71.88-.48,1.69-1.03,2.62-1.47l2.91-1.46,1.49-.74c.51-.26,1.09-.61,1.61-.91,2.19-1.24,4.09-2.69,5.97-4.31,3.67-3.28,6.51-7.5,8.36-11.79,1.91-4.28,3.06-8.56,4.66-12.15,1.58-3.62,3.77-6.34,6.85-8.1,3.1-1.74,6.82-2.61,10.59-3.12.95-.11,1.89-.2,2.84-.31.95-.06,1.9-.11,2.84-.16l.35-.02h2.44c.97.02,1.93.03,2.89.05,1.96-.06,3.65.25,5.43.39.87.09,1.75.14,2.61.28.86.19,1.7.36,2.55.53.85.17,1.68.33,2.51.51.8.26,1.6.5,2.39.76.78.25,1.57.5,2.34.75.75.29,1.47.66,2.19.98,5.77,2.63,10.34,6.46,13.4,10.66,3.09,4.19,4.72,8.61,5.63,12.29.94,3.71,1.12,6.75,1.26,8.81-.01,2.08-.01,3.19-.01,3.19l.38.03s.06-1.11.18-3.21c-.03-2.08,0-5.18-.82-9.01-.78-3.82-2.25-8.44-5.3-12.99-3.01-4.54-7.69-8.86-13.74-11.77-6.03-2.95-13.27-4.53-20.92-4.97-1.91-.05-3.83-.17-5.82-.17-.99.03-1.98.06-2.98.09-1,.09-2,.16-2.99.25-4,.41-8.12,1.32-11.87,3.35-1.83,1.05-3.53,2.4-4.93,4.04-1.39,1.64-2.49,3.53-3.39,5.5-1.81,3.95-2.96,8.16-4.78,12.1-1.76,3.97-4.29,7.63-7.59,10.53-1.65,1.42-3.43,2.74-5.35,3.8-.93.57-1.93,1.06-2.94,1.55l-3.01,1.46c-1.01.48-1.94,1.13-2.93,1.67-.89.69-1.87,1.27-2.68,2.05-1.72,1.46-3.22,3.24-4.19,5.29-2.06,4.14-1.75,8.91-.91,13.18.81,4.32,2.17,8.49,2.38,12.73.1,2.11-.16,4.22-1.04,6.08-.86,1.87-2.35,3.39-4,4.54-1.68,1.18-3.57,2.05-5.38,3.03-1.8.98-3.6,1.96-5.28,3.07-3.37,2.17-6.6,4.66-8.64,8.01-2.08,3.34-2.5,7.32-2.06,10.89.44,3.6,1.33,7,2.42,10.15,1.04,3.18,2.21,6.17,3.35,8.98.28.71.58,1.41.78,2.11.18.7.53,1.36.56,2.07.06.7.26,1.39.13,2.06l-.1,1.01c-.05.33-.19.63-.28.95-.85,2.52-2.74,4.34-4.36,5.99-1.67,1.65-3.18,3.22-4.36,4.8-2.33,3.21-2.96,6.38-3.12,8.47-.06,1.05.01,1.85,0,2.39.01.53.02.81.02.81h.37Z"/>
    <path class="cls-25" d="m577.93,533.36l-.37-2.17c-.49-2.91-1.42-5.74-2.52-8.51-1.28-2.7-2.67-5.4-4.65-7.71-.49-.58-.94-1.19-1.46-1.74l-1.64-1.59c-1.04-1.13-2.34-1.93-3.53-2.89-1.23-.88-2.59-1.6-3.9-2.38-1.41-.61-2.71-1.28-4.23-1.84-1.36-.46-2.67-.95-4.08-1.39-1.44-.4-2.87-.86-4.32-1.19-1.45-.31-2.88-.69-4.37-.92-1.48-.19-2.95-.48-4.45-.59-1.5-.06-3.01-.23-4.52-.22-1.5.08-3.03.03-4.54.2-1.49.2-3.02.33-4.51.61l-2.22.53-1.11.27-.56.14-.27.06-.14.05h-.08s-.19.08-.19.08c-2.53.8-5.83,2.2-8.4,3.9-2.63,1.75-5,3.87-7.04,6.22-2.06,2.34-3.71,4.91-5.21,7.51-2.99,5.22-5.16,10.6-7.6,15.63l.3-.51c-.6.81-1.2,1.61-1.79,2.35-.59.74-1.18,1.42-1.78,2.03l-.91.83-.93.67-.96.53c-.34.12-.67.25-1,.38l.72-.13c-1.16.14-2.33.27-3.48.46l-1.68.41c-.56.15-1.14.26-1.67.44l-1.63.58c-.54.2-1.09.37-1.61.6-1.04.5-2.09.95-3.1,1.51-.97.61-1.96,1.2-2.91,1.84-.91.71-1.83,1.4-2.73,2.14l-2.49,2.42-2.21,2.7-.25.31-.12.31-.63,1.84-.36,1.81-.17,1.75-.03,1.67c.02,2.19.25,4.2.4,6.07.06.94.13,1.85.12,2.68.01.86-.04,1.64-.17,2.33-.03.37-.17.63-.24.95-.08.31-.26.51-.35.78-.14.24-.32.41-.46.64-.22.19-.43.36-.62.56l.38-.23-1.31.62-1.4.55c-.98.33-1.97.65-3.01.95-2.11.6-4.35,1.12-6.7,1.95-1.18.42-2.38.94-3.57,1.6-.59.36-1.18.76-1.75,1.17-.55.48-1.13.92-1.61,1.47-.45.58-1,1.11-1.34,1.75-.35.62-.8,1.25-1.03,1.91-.23.65-.56,1.32-.7,1.97l-.45,1.98-.08.3.05.42c.42,4.63,1.59,8.67,2.1,12.64.26,1.98.37,3.91.16,5.69-.11.9-.3,1.75-.56,2.55l-.48,1.17-.64,1.08-.04.08-.06.09c-.37.5-.67,1.04-1.08,1.53-.46.5-.83,1.02-1.35,1.49-.98.98-2.07,1.91-3.21,2.85-2.28,1.86-4.74,3.66-7.1,5.76-2.33,2.09-4.65,4.55-6.02,7.74-.3.81-.7,1.59-.8,2.46-.16.85-.4,1.7-.32,2.57-.08,1.77.25,3.32.73,5.07.5,1.4,1.08,2.85,1.67,4.28l1.8,4.18c1.21,2.76,2.4,5.5,3.34,8.3l.64,2.11.5,2.15.34,2.18.15,2.19c-.03.73-.01,1.47-.06,2.2-.11.73-.16,1.47-.31,2.19-.18.72-.33,1.45-.55,2.16l-.78,2.1.34.16.89-2.09c.26-.72.44-1.46.67-2.19.19-.73.29-1.49.43-2.23.11-.76.12-1.52.18-2.28.01-.76-.03-1.52-.05-2.28l-.27-2.27-.44-2.23-.58-2.19c-1.7-5.83-4.4-11.26-6.18-17.01-.32-1.42-.6-2.91-.47-4.38-.04-.75.18-1.46.32-2.19.09-.74.47-1.4.73-2.08,1.23-2.7,3.36-4.91,5.62-6.86,2.28-1.95,4.74-3.68,7.14-5.53,1.19-.94,2.37-1.89,3.48-2.94,1.11-1.04,2.09-2.22,2.94-3.5h-.01s.87-1.36.87-1.36c.23-.49.46-.99.67-1.48.36-1.03.63-2.07.78-3.15.3-2.14.21-4.3-.01-6.42-.45-4.25-1.53-8.38-1.89-12.58v.08l.39-1.61c.12-.55.37-1.03.56-1.55.17-.53.54-.95.78-1.45.26-.48.68-.85,1.01-1.28.35-.42.8-.74,1.21-1.11.45-.31.91-.61,1.37-.9.98-.53,2-.97,3.05-1.33,2.11-.73,4.3-1.23,6.49-1.82,1.09-.3,2.18-.63,3.25-1,1.07-.37,2.12-.84,3.15-1.33l.03-.02h.01s1.16-1.02,1.16-1.02c.3-.41.65-.8.91-1.23.21-.46.51-.89.64-1.39.14-.48.34-.95.4-1.46.2-.99.26-1.99.26-2.98.01-.99-.05-1.98-.11-2.95-.14-1.95-.33-3.9-.34-5.83,0-.98.08-1.92.19-2.88l.29-1.39.47-1.33-.03.06,1.95-2.36,2.21-2.12c.8-.64,1.62-1.25,2.43-1.88.86-.57,1.75-1.08,2.62-1.62.89-.48,1.84-.9,2.75-1.35.46-.23.95-.36,1.44-.55l1.44-.53c.48-.17.98-.27,1.48-.39l1.49-.38c1.01-.17,2.02-.29,3.04-.44h.05s.02-.01.02-.01l1.48-.58,1.39-.78,1.26-.94c.39-.36.77-.7,1.15-1.06.73-.75,1.4-1.53,2.05-2.35.63-.81,1.25-1.65,1.85-2.48l.02-.03v-.02c2.47-5.18,4.57-10.51,7.38-15.47,1.4-2.47,2.93-4.88,4.79-7.03,1.84-2.15,3.96-4.07,6.3-5.66,2.38-1.56,4.95-2.69,7.68-3.6l4.11-1.05c1.39-.29,2.81-.44,4.21-.67,1.41-.19,2.84-.18,4.25-.28,1.43-.06,2.84.08,4.26.11,1.43.06,2.83.31,4.25.46,1.4.19,2.79.53,4.19.78,2.77.63,5.52,1.43,8.23,2.33,1.33.46,2.62,1.08,3.93,1.62,1.23.7,2.5,1.34,3.68,2.14,1.12.87,2.36,1.59,3.35,2.62l1.56,1.45c.51.51.94,1.08,1.41,1.6,1.89,2.12,3.32,4.6,4.62,7.13,1.14,2.61,2.14,5.28,2.7,8.07-6.99-5.68,8.19,23.75,1.8,1.86Z"/>
    <path class="cls-25" d="m533.22,566.97c-.27.69-.62,1.34-.77,2.06-.14.71-.4,1.43-.41,2.13-.04.7-.15,1.43-.09,2.09.44,5.74,3.59,8.75,6.08,14.19.83,1.8,1.5,3.62,1.84,5.39.53,2.87-.16,6.34-1.68,8.87-.64,1.22-1.4,2.44-2.22,3.66-1.63,2.45-3.46,4.9-5.09,7.61-5.58,9.36-4.56,14.65,1.98,22.54l2.95,3.47c1.98,2.28,3.92,4.54,5.65,6.94l1.23,1.84,1.12,1.9.97,1.98.8,2.05c.19.7.43,1.41.59,2.12.11.73.28,1.45.35,2.19.03.73.11,1.48.11,2.22l-.11,2.23.37.06.23-2.28c.03-.75-.01-1.51,0-2.28-.04-.76-.18-1.51-.26-2.28-.13-.74-.33-1.48-.5-2.22-.22-.73-.48-1.45-.72-2.17l-.92-2.08-1.08-2-1.19-1.93c-7.95-12.01-18.47-16.96-9.59-31.07,1.6-2.54,3.46-4.91,5.19-7.39.86-1.23,1.7-2.5,2.45-3.83,1.86-3.24,2.82-6.87,2.22-10.61-.34-2.14-1.06-4.18-1.9-6.13-2.25-5.24-6.41-9.7-4.98-15.27,1.2-4.71,3.97-3.3,7.55-5.93,2.01-1.14-9.06-.2-10.16,1.93Z"/>
    <path class="cls-27" d="m582.86,544.37s.08-.28.23-.81c.08-.27.17-.6.28-1,.06-.2.12-.42.17-.64.05-.28.12-.58.17-.89.11-.63.24-1.34.37-2.12.07-.75.15-1.57.22-2.46.04-.89.03-1.85.03-2.88-.09-1.02-.15-2.12-.33-3.25-.32-2.28-.98-4.76-1.94-7.34-1.01-2.57-2.39-5.22-4.19-7.83-3.57-5.21-8.85-10.22-15.74-13.76-6.83-3.51-15.31-5.89-24.5-4.81-2.29.22-4.58.77-6.87,1.44-1.16.41-2.17.74-3.46,1.3-.95.44-1.84.8-2.87,1.31-1.08.58-2.2,1.14-3.25,1.76-1,.68-2.03,1.31-3.02,2.05-1.96,1.5-3.86,3.19-5.55,5.13-1.68,1.94-3.19,4.09-4.37,6.38-.58,1.11-1.25,2.42-1.62,3.36-.44,1.02-.88,2.05-1.32,3.08-1.74,4.13-3.39,7.92-5.62,10.95-.28.37-.54.76-.83,1.12l-.91,1-.45.51-.06.06c-.08.08.5-.46.22-.2l-.17.14-.32.28-1.31,1.11-.32.28-.26.14-.48.28c-.33.19-.59.39-.98.61-.92.45-1.7.92-2.73,1.37l-3.09,1.39c-1.05.46-2.21,1.02-3.36,1.59-1.13.53-2.34,1.34-3.5,2.01-.58.39-1.15.85-1.73,1.28l-.85.67-.43.33c-.56.54-.19.19-.34.33l-.08.09-.14.15-1.2,1.25-.59.64-.74.95c-.5.67-.97,1.34-1.43,2.02-.42.67-.71,1.35-1.05,2.03-.74,1.36-1.04,2.79-1.5,4.19-.23,1.34-.58,2.78-.65,4.02-.3,2.63-.3,4.91-.42,7.18v.22c.01-.18-.06.57.05-.39v.11s-.08.43-.08.43l-.12.85c-.08.83-.2.43-.18.53.03.08-.23.42-.51.66-.66.6-2.49,1.19-4.54,1.62-2.07.46-4.43.85-7.03,1.72-.62.18-1.3.47-1.98.78-.33.16-.67.3-1,.47l-1.01.63c-.34.22-.68.44-1,.67l-.93.86-.89.89-.73,1.04-.7,1.08c-.09.2.12-.27-.25.49l-.04.1-.08.18-.15.39-.3.76-.15.39c-.05.14-.11.39-.16.58-.22.82-.41,1.67-.54,2.48l-.12,2.09c.11,5.47,1.75,9.65,2.63,13.35.45,1.85.67,3.52.58,4.95-.04,1.45-.53,2.56-1.37,3.66l-.32.41-.16.22-.09.11.11-.08-.08.06-1.11.98c-.63.45-1.08.81-1.91,1.3-1.49.91-3.19,1.74-4.94,2.79-.88.56-1.76,1.06-2.61,1.78l-.64.5-.16.12-.08.06c-.09.08.11-.1-.23.21l-.24.25-.93.98-.47.48-.51.69-.99,1.37c-.58.92-.98,1.84-1.42,2.75-1.49,3.74-1.77,7.49-1.5,10.86l.11,1.26.04.42.05.28.11.57c.14.76.28,1.5.42,2.24.22,1.46.62,2.93,1.01,4.35.73,2.88,1.57,5.32,2.28,7.67.71,2.32,1.31,4.43,1.96,6.43.64,1.93,1.21,3.59,1.54,5.07.31,1.46.37,2.74.2,3.73-.32,2.03-1.26,2.84-1.18,2.88l.44.36c-.09-.02,1-.84,1.51-3.07.26-1.1.3-2.49.06-4.07-.23-1.57-.72-3.34-1.26-5.27-.53-1.93-1.02-4.12-1.62-6.49-.57-2.36-1.29-4.9-1.84-7.64-.3-1.35-.61-2.76-.76-4.26-.18-1.49-.47-2.98-.47-4.54-.09-3.11.27-6.44,1.63-9.55,1.37-3.08,3.94-5.73,7.19-7.45,1.6-.9,3.35-1.67,5.05-2.62.86-.44,1.71-1.01,2.52-1.59l1.14-.94c.41-.36.71-.75,1.06-1.14,1.34-1.53,2.3-3.54,2.48-5.65.24-2.1,0-4.22-.41-6.28-.83-4.11-2.27-8.19-2.22-12.42l.11-1.56.32-1.49c.08-.51.4-1.01.57-1.51.11-.23.23-.56.32-.7l.44-.64c1.17-1.72,3.09-2.78,5.15-3.43,2.07-.66,4.28-1,6.5-1.44,2.2-.45,4.54-.91,6.55-2.32.97-.73,1.84-1.64,2.33-2.81.59-1.23.65-2.25.82-3.49.16-2.29.22-4.58.53-6.83.09-1.14.4-2.22.59-3.32.4-1.04.61-2.16,1.19-3.11.91-2.06,2.39-3.67,4.07-5.32,3.28-3.03,7.72-4.56,11.91-6.45,1.06-.45,2.09-1.02,3.14-1.53,1.01-.61,2.11-1.22,3.02-1.92l1.33-1.09c.24-.2.4-.3.7-.6l.6-.64,1.2-1.3c.37-.45.71-.92,1.07-1.38,2.81-3.76,4.68-8,6.46-12.06,1.76-4.15,3.57-7.95,6.41-11.04,2.76-3.08,6.21-5.52,9.79-7.21.91-.44,1.89-.84,2.82-1.26.87-.36,1.82-.68,2.74-.99,1.87-.51,3.73-.95,5.61-1.11,7.55-.83,14.74,1.25,20.51,4.29,5.84,3.08,10.27,7.39,13.16,11.72,1.46,2.17,2.56,4.34,3.35,6.41.74,2.08,1.23,4.04,1.47,5.83.5,3.53.12,6.49-.25,8.16-.03.23-.06.43-.1.62-.06.22-.13.45-.18.64-.09.4-.19.74-.26,1.01-.15.54-.21.82-.21.82l6.9,1.58Z"/>
    <path class="cls-23" d="m577.39,542.23s-.03-.28-.1-.81c-.09-.59-.09-1.23-.4-2.54-.14-.6-.27-1.32-.48-2.04-.22-.7-.46-1.46-.72-2.28-.33-.8-.65-1.68-1.08-2.58-.47-.87-.9-1.86-1.51-2.78-2.31-3.81-5.94-7.94-11.03-11.33-5.04-3.4-11.5-6.15-18.98-7.03-7.39-.9-16.06-.11-24,4.38-1.01.53-1.93,1.21-2.9,1.82-.9.72-1.86,1.38-2.71,2.19l-1.29,1.2-.16.15c-.09.09.1-.12-.23.23l-.06.08-.25.28-.5.56-.51.56-.62.8c-.4.53-.87,1.12-1.17,1.62-2.8,4.13-4.07,8.7-5.32,12.68-.61,2-1.21,3.87-1.92,5.59-.34.87-.72,1.67-1.14,2.45-.21.37-.4.78-.64,1.13l-.34.53-.17.27-.08.14c-.23.29.26-.32.18-.22l-.06.08-1.04,1.25c-.16.17-.39.48-.5.55l-.36.3c-.27.2-.41.41-.75.65l-1.05.76c-1.48,1-3.18,1.92-5.11,2.82-1.88.91-3.96,1.82-6.13,2.94-2.15,1.06-4.48,2.5-6.64,4.41-2.23,1.86-4.05,4.74-5.03,7.66l-.61,2.23c-.13.73-.18,1.45-.26,2.18l-.09,1.09-.02.27v.89c.03.56.03,1.09.14,1.89l.13,1.11.14.91.28,1.68c.1.55.19,1.07.25,1.53.07.5.13.97.15,1.37.05.44.06.84.05,1.17v.54l-.08.42-.03.2v.11c-.08.28.11-.31.06-.22l-.03.11-.26.8-.05.05-.06.12c-.09.15-.16.27-.64.5-.46.21-1.28.42-2.25.59-.99.17-2.14.33-3.41.59-.32.06-.64.13-.98.22l-.51.13-.13.03-.43.12-.19.08-1.57.56-.78.28-1.08.54c-.72.39-1.46.74-2.11,1.19-.62.5-1.23,1-1.83,1.51-.59.52-1.08,1.22-1.58,1.86-1.93,2.71-2.53,5.93-2.56,8.56-.05,2.71.4,5.05.83,7.27.44,2.23.95,4.27,1.36,6.26.22.98.39,1.93.53,2.85.09.47.11.9.16,1.34l.06.65v.17c.02.07.02-.43.02-.17v.5s-.02.77-.02.77l-.06.29c.02.15-.12.46-.16.73-.2.53-.42,1.06-.87,1.61-.78,1.09-2.18,2.18-3.7,3.26-1.54,1.09-3.26,2.2-4.96,3.6l-.32.27-.16.13-.2.18-.06.06-.51.51c-.36.35-.68.64-1.04,1.04-.77.92-1.6,1.84-2.14,2.8-1.23,1.88-2.06,4.01-2.45,6.11-.42,2.11-.47,4.18-.27,6.12.16,1.95.56,3.78,1.02,5.5.94,3.43,2.19,6.57,3.42,9.36,1.17,2.7,2.05,5.39,2.65,7.95,1.2,5.06,1.31,9.93-.63,12.79-.95,1.42-2.38,2.17-3.74,2.52-1.37.36-2.65.34-3.67.3-1.03-.08-1.81-.18-2.34-.29-.54-.09-.81-.15-.81-.15l-.15.53s.28.06.8.19c.54.15,1.34.31,2.39.46,1.06.12,2.4.23,3.95-.05,1.53-.28,3.32-1.07,4.59-2.71,1.25-1.64,1.91-3.87,2.09-6.26.2-2.39-.01-4.99-.5-7.7-.48-2.71-1.25-5.56-2.33-8.46-1.09-2.87-2.2-5.89-2.96-9.14-.39-1.63-.69-3.31-.76-5.03-.12-1.72-.02-3.49.39-5.22.38-1.73,1.1-3.41,2.15-4.91.46-.78,1.12-1.44,1.71-2.14.68-.63,1.4-1.35,2.12-1.89,2.96-2.36,6.77-3.93,9.56-7.14.7-.78,1.22-1.74,1.64-2.73.35-.98.62-2.16.59-3.16-.01-2.14-.31-4.23-.72-6.31-.74-4.15-1.94-8.32-1.86-12.56.06-2.1.55-4.21,1.78-5.88.34-.39.61-.84,1.02-1.17l1.23-.98c.43-.29.91-.5,1.37-.75l.69-.37.78-.26,1.57-.53c.46-.14,1.03-.26,1.56-.35,1.06-.19,2.17-.33,3.27-.5,1.12-.17,2.25-.38,3.36-.81,1.09-.43,2.16-1.14,2.9-2.11.37-.47.66-1.04.91-1.6l.28-.8c.11-.32.13-.59.19-.88.14-.59.23-1.17.22-1.75.05-.59.04-1.16,0-1.74-.13-2.29-.61-4.53-.82-6.69-.07-.54-.07-1.09-.08-1.67-.05-.58.05-1.04.11-1.61.06-.54.1-1.08.19-1.61l.45-1.53c.73-2,1.87-3.85,3.56-5.22,3.26-2.82,7.48-4.39,11.49-6.27,2.02-.92,4.02-1.95,5.93-3.2,1.88-1.19,3.71-2.94,4.99-4.57,2.79-3.77,4.18-7.94,5.49-11.96,1.3-3.99,2.53-7.9,4.73-11.06,2.15-3.1,5.14-5.65,8.33-7.37,6.44-3.57,13.7-4.21,20.01-3.37,6.38.82,11.89,3.23,16.09,6.13,4.23,2.89,7.12,6.3,8.9,9.33,1.81,2.99,2.6,5.79,2.9,7.42.21.76.28,1.73.35,2.22.08.54.12.81.12.81l6.67-1.11Z"/>
    <path class="cls-23" d="m595.84,552.58c3.49,1.81,18.29,8.51,23.67,23.62.99,2.76,5.75-11.82,5.45-14.92-.37-3.84,5.55-3.62,2.96-6.73-7.9-9.45-5.82-3.07-9.08-15.41-2.65-9.99-27.36-30.82-39.74-25.86-2.89,1.16.63,8.24,1.43,12.61.64,3.52,6.41,15.95,9.04,18.06,2.16,1.73,2.93,6.88,6.27,8.62Z"/>
    <path class="cls-25" d="m596.99,547.98c.66.6,2.47,1.23,4.51,1.7,2.07.5,4.42.93,7,1.86.62.19,1.29.49,1.96.82.33.17.65.31.99.49l1,.65c.33.22.65.45.98.69l.92.88.88.91.71,1.06.66,1.08c.1.21-.11-.26.25.5l.03.09.08.19.14.39.29.77.14.39c.05.14.11.39.16.58.19.83.36,1.67.48,2.49l.08,2.1c-.22,5.46-1.93,9.61-2.88,13.3-.49,1.84-.74,3.5-.69,4.93.02,1.46.49,2.58,1.31,3.69l.32.42.15.2.07.11-.09-.08.08.06,1.08,1c.62.46,1.07.84,1.89,1.33,1.47.94,3.15,1.8,4.89,2.88.86.57,1.74,1.09,2.57,1.82l.63.51.15.13.08.06c.09.1-.11-.11.23.22l.23.26.92,1,.45.5.51.7.95,1.4c.57.93.94,1.86,1.37,2.77,1.42,3.78,1.62,7.53,1.29,10.89l-.13,1.25-.05.42-.05.29-.12.57c-.16.75-.31,1.49-.46,2.23-.26,1.45-.68,2.91-1.1,4.32-.78,2.85-1.67,5.29-2.41,7.63-.76,2.29-1.4,4.4-2.09,6.38-.69,1.92-1.28,3.56-1.64,5.04-.34,1.46-.42,2.73-.28,3.73.28,2.03,1.2,2.87,1.13,2.89l-.44.36c.09-.02-.99-.86-1.46-3.09-.23-1.11-.25-2.5.01-4.08.27-1.56.78-3.31,1.37-5.25.56-1.91,1.09-4.1,1.74-6.45.61-2.35,1.39-4.88,1.99-7.6.33-1.36.66-2.76.85-4.25.2-1.49.52-2.98.56-4.54.15-3.1-.15-6.44-1.45-9.57-1.32-3.11-3.83-5.81-7.05-7.6-1.59-.92-3.32-1.72-5-2.71-.85-.46-1.68-1.04-2.5-1.63l-1.12-.96c-.4-.39-.69-.77-1.03-1.16-1.31-1.57-2.25-3.59-2.37-5.7-.19-2.11.08-4.22.53-6.27.9-4.09,2.42-8.14,2.46-12.37l-.08-1.57-.3-1.5c-.06-.5-.36-1.01-.54-1.51-.11-.24-.21-.57-.3-.71l-.43-.64c-1.14-1.74-3.05-2.85-5.08-3.53-2.06-.7-4.26-1.08-6.47-1.56-2.19-.49-4.52-1.01-6.5-2.46-.96-.74-1.81-1.67-2.28-2.84-4.25-9.31,3.45-3.05,5.34-1.31Z"/>
    <path class="cls-15" d="m566.96,650.73s3.77.29,6.82-.02c1.54-.04,3.09.19,4.77.44,1.7.25,3.55.55,5.73.37,2.19.01,4.08.06,5.73.06,1.65-.01,3.06-.15,4.29-.85.83-.43,1.81-.69,2.77-.78.95-.11,1.86-.08,2.53-.02.3,0,.54-.03.71-.09-1.65-.91-3.31-1.75-4.97-2.53-1.56-.75-3.11-1.48-4.7-2.06-1.56-.57-3.15-.98-4.74-1.32,0,0-6.94.5-8.09,1-.58.27-3.37,1.35-5.9,2.75-2.59,1.43-4.94,3.06-4.94,3.06Z"/>
    <path class="cls-32" d="m587.65,650.68c1.84.19,3.56.11,4.91-.51,1.22-.49,3.05-1.37.15-2.66-1.8-.66-3.55-.98-5.31-1.02-1.76-.05-3.52.17-5.35.16-1.79.13-3.48.25-5.27.74-.68.23-1.91.8-2.09,1.53-.33,1.37,3.95,1.2,4.96,1.28,2.56.37,5.31.47,8.01.49Z"/>
    <path class="cls-15" d="m600.46,649.73c-1.14-.43-2.38-1.73-5.79-4.51-3.33-2.53-4.39-2.57-5.85-2.85-1.45-.19-2.9.83-2.9.83-.62-.34-1.28-.68-1.87-1.01-1.5-1-3.29-.56-3.29-.56-2.1.41-4.38,1.75-6.33,3.26-2.23,1.74-4.49,3.57-6.07,4.63-2.08,1.5-3.04,1.67-3.04,1.67.56.37,1.67-.14,3.91-1.19,2.26-1.08,4.72-2.37,7.18-3.29,2.42-.9,4.85-1.34,6.98-1.28.05.01.11,0,.16,0,.11.05.22.12.32.17,1.56.66,2.98.56,4.38.21,1.51.25,3.63.87,5.77,1.72,2.18.87,4.39,1.97,6.19,2.55.2-.05.33-.16.39-.31-.06-.01-.11-.03-.16-.05Z"/>
    <path class="cls-30" d="m583.42,645.16c-1.46-.22-3.08.08-4.55.41-1.79.54-3.56,1.29-5.33,2.07-1.22.54-6.42,3.75-8.19,3.32h-.01c.81.68,3.96-1.01,7.19-2.67,1.87-.81,3.74-1.61,5.61-2.24,1.76-.47,3.5-.67,5.28-.77.06,0,.07-.09,0-.11h0Zm16.95,4.65c-1.39-.42-2.92-1.12-4.4-1.78-2.42-.94-4.89-1.98-7.31-2.39.25-.08.47-.16.69-.23.06-.03.01-.12-.07-.11-1.71.32-3.42.83-5.37.07-.03-.02-.06.03-.02.05.86.36,1.73.6,2.67.57.69,0,1.36-.13,1.96-.31,2.73.64,5.44,1.78,8.15,2.82,1.04.46,2.25,1.01,3.39,1.42.12-.02.23-.05.31-.09Z"/>
    <path class="cls-37" d="m580.18,652.26c3.56,2.26,6.49,2.23,8.79-.13-2.97.15-5.9.22-8.79.13Z"/>
  </g>
  <g>
    <path class="cls-19" d="m1408.94,705.61l118.77,212.15c3.01,5.4,9.85,7.33,15.25,4.3,5.4-3.03,7.33-9.85,4.3-15.26l-118.76-212.13c-3.03-5.4-9.85-7.33-15.26-4.3-5.4,3.03-7.33,9.85-4.3,15.25Z"/>
    <path class="cls-19" d="m2050.85,705.2l-128.54,208.82c-3.24,5.27-1.6,12.17,3.67,15.42,5.28,3.24,12.18,1.6,15.42-3.67l128.54-208.82c3.24-5.27,1.6-12.18-3.68-15.42-5.26-3.24-12.17-1.6-15.41,3.67Z"/>
    <polygon class="cls-19" points="2003.45 1556.65 1943.89 1449.85 1924.3 1460.76 1983.88 1567.57 2003.45 1556.65"/>
    <polygon class="cls-19" points="1482.31 1562.97 1549.3 1453.54 1530.18 1441.84 1463.2 1551.27 1482.31 1562.97"/>
    <path class="cls-12" d="m1522.73,1539.48c0,21.93-17.76,39.69-39.69,39.69s-39.7-17.76-39.7-39.69,17.77-39.69,39.7-39.69,39.69,17.77,39.69,39.69Z"/>
    <path class="cls-12" d="m2017.38,1539.48c0,21.93-17.77,39.69-39.69,39.69s-39.7-17.76-39.7-39.69,17.78-39.69,39.7-39.69,39.69,17.77,39.69,39.69Z"/>
    <path class="cls-3" d="m2096.42,1177.86c0,194.05-161.96,351.37-361.75,351.37s-361.74-157.32-361.74-351.37,161.96-351.35,361.74-351.35,361.75,157.3,361.75,351.35Z"/>
    <path class="cls-20" d="m2040.82,1180.63c0,170.3-138.06,308.36-308.37,308.36s-308.37-138.06-308.37-308.36,138.06-308.37,308.37-308.37c170.31-.01,308.37,138.06,308.37,308.37Z"/>
    <path class="cls-12" d="m1355.88,944.37s184.57-81.17,299.1-171.24c0-.01-72.65-146.78-230.91-52.27,0,0-138.8,88.44-68.19,223.5Z"/>
    <path class="cls-12" d="m1820.4,771.65s159.39,123.51,293.18,181.2c0,0,94.35-133.85-64.21-227.87,0,0-143.94-79.81-228.97,46.66Z"/>
    <path class="cls-9" d="m1732.45,1356.36v-364.7c100.56.18,182.02,81.75,182.02,182.35s-81.46,182.17-182.02,182.34Z"/>
    <path class="cls-9" d="m1732.11,1356.36c-100.7,0-182.34-81.64-182.34-182.34s81.64-182.35,182.34-182.35h.33v364.7h-.33Z"/>
    <polygon class="cls-3" points="1765.58 1162.44 1839.52 1135.78 1978.99 1124.86 1843.97 1160.02 1764.99 1168.88 1765.58 1162.44"/>
    <polygon class="cls-3" points="1715.93 1200.28 1683.55 1260.56 1625.14 1320.66 1664.64 1247.64 1711.38 1193.15 1715.93 1200.28"/>
    <path class="cls-3" d="m1729.87,1210.49c-19.17-1.77-33.26-18.74-31.49-37.9,1.78-19.17,18.75-33.26,37.91-31.49,19.16,1.78,33.25,18.75,31.48,37.91s-18.74,33.26-37.9,31.48Z"/>
    <path class="cls-3" d="m1725.17,892.44v35.52c0,4.36,3.56,7.9,7.91,7.9,4.37-.01,7.9-3.54,7.9-7.9v-35.52c0-4.37-3.54-7.9-7.9-7.9s-7.91,3.53-7.91,7.9Z"/>
    <path class="cls-3" d="m1725.17,1435.5v35.52c0,4.36,3.56,7.89,7.91,7.89s7.9-3.53,7.9-7.89v-35.52c0-4.36-3.54-7.9-7.9-7.9s-7.91,3.54-7.91,7.9Z"/>
    <path class="cls-3" d="m1443.79,1189.62h35.52c4.36,0,7.9-3.53,7.9-7.89s-3.54-7.9-7.9-7.9h-35.52c-4.37,0-7.9,3.53-7.9,7.9s3.53,7.89,7.9,7.89Z"/>
    <path class="cls-3" d="m1986.85,1189.62h35.52c4.36,0,7.9-3.53,7.9-7.89s-3.54-7.9-7.91-7.9h-35.51c-4.37,0-7.9,3.53-7.9,7.9s3.53,7.89,7.9,7.89Z"/>
    <path class="cls-3" d="m1492.11,1329.97l19.54-11.27c3.77-2.19,5.07-7.02,2.89-10.79-2.18-3.78-7.02-5.07-10.79-2.9l-19.56,11.29c-3.77,2.18-5.07,7.01-2.88,10.8,2.17,3.77,7.01,5.07,10.79,2.88Z"/>
    <path class="cls-3" d="m1962.4,1058.45l19.56-11.29c3.78-2.18,5.07-7.01,2.89-10.79-2.18-3.78-7.01-5.08-10.79-2.89l-19.54,11.28c-3.78,2.18-5.08,7.01-2.9,10.79,2.19,3.79,7.02,5.07,10.78,2.9Z"/>
    <path class="cls-3" d="m1598.52,1430.59l11.27-19.53c2.19-3.79.89-8.62-2.87-10.79-3.79-2.18-8.62-.89-10.8,2.9l-11.29,19.53c-2.17,3.79-.88,8.62,2.9,10.8,3.78,2.18,8.61.89,10.8-2.9Z"/>
    <path class="cls-3" d="m1870.04,960.3l11.29-19.54c2.18-3.79.88-8.61-2.9-10.79-3.78-2.18-8.61-.88-10.79,2.9l-11.28,19.54c-2.19,3.78-.89,8.61,2.89,10.79,3.77,2.18,8.61.89,10.79-2.89Z"/>
    <path class="cls-3" d="m1584.83,940.76l11.29,19.54c2.18,3.78,7.01,5.07,10.8,2.89,3.76-2.18,5.06-7.01,2.87-10.79l-11.27-19.54c-2.19-3.78-7.02-5.08-10.8-2.9-3.78,2.19-5.07,7.02-2.9,10.79Z"/>
    <path class="cls-3" d="m1856.36,1411.06l11.28,19.53c2.18,3.79,7.01,5.08,10.79,2.9,3.78-2.19,5.08-7.01,2.9-10.8l-11.29-19.53c-2.18-3.79-7.01-5.08-10.79-2.9-3.78,2.18-5.08,7.02-2.89,10.79Z"/>
    <path class="cls-3" d="m1484.2,1047.16l19.56,11.29c3.77,2.18,8.61.89,10.79-2.9,2.18-3.78.88-8.61-2.89-10.79l-19.54-11.28c-3.77-2.19-8.62-.89-10.79,2.89-2.19,3.78-.89,8.61,2.88,10.79Z"/>
    <path class="cls-3" d="m1954.51,1318.7l19.54,11.27c3.78,2.19,8.61.89,10.79-2.88,2.18-3.79.89-8.62-2.89-10.8l-19.56-11.29c-3.76-2.17-8.59-.88-10.78,2.9-2.18,3.77-.88,8.61,2.9,10.79Z"/>
  </g>
  <g>
    <path class="cls-42" d="m430.65,366.39h108.97c7.42,0,13.45,6.03,13.45,13.45v108.96c0,7.42-6.02,13.44-13.44,13.44h-108.97c-7.42,0-13.45-6.03-13.45-13.45v-108.96c0-7.42,6.02-13.44,13.44-13.44Z"/>
    <path class="cls-9" d="m504.51,471.05l-1.3,5.36c-3.94,1.55-7.06,2.72-9.4,3.53-2.33.81-5.03,1.22-8.13,1.22-4.76,0-8.46-1.16-11.08-3.48-2.64-2.34-3.96-5.28-3.96-8.86,0-1.39.11-2.8.31-4.24.19-1.45.51-3.09.96-4.91l4.89-17.36c.44-1.67.81-3.25,1.12-4.73.28-1.5.44-2.85.44-4.08,0-2.21-.46-3.77-1.37-4.66-.91-.87-2.66-1.3-5.24-1.3-1.26,0-2.56.2-3.91.59-1.32.39-2.46.77-3.41,1.12l1.32-5.36c3.21-1.3,6.3-2.41,9.22-3.35,2.95-.94,5.73-1.4,8.35-1.4,4.73,0,8.37,1.14,10.93,3.41,2.55,2.3,3.86,5.26,3.86,8.92,0,.75-.11,2.07-.29,3.97-.16,1.91-.51,3.66-.98,5.25l-4.9,17.3c-.39,1.4-.75,2.98-1.07,4.77-.3,1.79-.47,3.13-.47,4.04,0,2.3.51,3.85,1.54,4.69,1.02.83,2.78,1.26,5.3,1.26,1.18,0,2.52-.2,4.02-.61,1.5-.42,2.58-.78,3.24-1.09h0Zm1.34-72.66c0,3.03-1.14,5.59-3.43,7.7-2.27,2.12-5.02,3.19-8.23,3.19s-5.99-1.06-8.28-3.19c-2.3-2.12-3.45-4.68-3.45-7.7s1.15-5.58,3.45-7.72c2.3-2.12,5.05-3.21,8.28-3.21s5.96,1.08,8.23,3.21c2.29,2.14,3.43,4.71,3.43,7.72Z"/>
  </g>
  <g>
    <path class="cls-12" d="m1484.85,257.12c-4.53-12.15-8.2-24.62-10.96-37.33l38.91-99.11,161.34,178.66c4.77,5.3,14.5,9.11,21.6,8.49l237.14-20.94-38.47,98.01c-10.67,7.43-21.85,14.08-33.43,19.9-66.48,33.41-146.35,39.48-221.04,10.15-74.71-29.32-129.1-88.12-155.1-157.83Z"/>
    <path class="cls-6" d="m1791.65.07l-346.2,30.57c-7.1.63-9,5.47-4.22,10.76l232.93,257.94c4.77,5.3,14.5,9.11,21.6,8.49l346.2-30.57c7.1-.64,9-5.47,4.23-10.76L1813.26,8.56c-4.79-5.29-14.51-9.11-21.61-8.49Z"/>
    <path class="cls-19" d="m1743.94,145.45c-3.27-3.31-8.61-3.34-11.91-.06-3.31,3.27-3.34,8.62-.06,11.92,35.79,36.29,64.61,67.13,86.45,92.52,19.81,23.02,33.56,41.21,41.25,54.57-18.53,54.1-41.67,114.52-69.43,181.27-1.78,4.3.26,9.24,4.56,11.03,4.3,1.78,9.24-.26,11.02-4.56,28.52-68.6,52.19-130.49,70.98-185.66.8-2.18.7-4.67-.47-6.87-7.86-14.71-22.9-34.98-45.13-60.82-21.8-25.35-50.89-56.47-87.27-93.34Z"/>
    <path class="cls-19" d="m1838.75,387.72c-14.45-5.67-30.75,1.45-36.42,15.88-5.67,14.44,1.44,30.74,15.88,36.4,14.43,5.68,30.74-1.44,36.4-15.87,5.67-14.45-1.44-30.74-15.87-36.41Z"/>
    <path class="cls-19" d="m1739.94,132.48c-14.44-5.66-28.94-3.13-32.4,5.67-3.46,8.8,5.45,20.53,19.89,26.21,14.44,5.67,28.94,3.12,32.4-5.68,3.45-8.8-5.44-20.53-19.89-26.2Z"/>
  </g>
  <g>
    <path class="cls-20" d="m389.92,856.38h-110.84c-8.8,0-15.93-7.02-15.93-15.68v-109.12c0-8.65,7.13-15.68,15.93-15.68h110.84c8.79,0,15.92,7.03,15.92,15.68v109.12c0,8.66-7.14,15.68-15.92,15.68Z"/>
    <path class="cls-31" d="m348.45,828.49c.06,7.52-6.08,13.67-13.72,13.74s-13.9-5.98-13.96-13.5c-.06-7.52,6.08-13.67,13.72-13.74,7.64-.08,13.89,5.98,13.96,13.5Z"/>
    <path class="cls-9" d="m374.24,764.09c-23.51-17.45-56.22-17.17-79.43.69-3.64,2.78-8.72,3.28-11.74.5-3.01-2.76-2.07-8.53,2.57-12.09,28.5-21.94,68.68-22.29,97.58-.85,4.7,3.48,5.74,9.23,2.79,12.04-2.96,2.82-8.07,2.42-11.76-.3Z"/>
    <path class="cls-31" d="m361.04,785.78c-15.91-10.56-36.93-10.38-52.64.46-3.73,2.52-8.81,3.05-11.86.3-3.04-2.73-1.86-8.8,3.32-12.35,20.74-14.3,48.52-14.54,69.52-.6,5.23,3.46,6.52,9.52,3.53,12.29-2.99,2.8-8.1,2.36-11.87-.09Z"/>
    <path class="cls-31" d="m346.73,807.69c-7.74-3.81-16.95-3.73-24.62.22-3.91,1.91-9.01,2.49-12.12-.19-3.11-2.63-1.33-9.48,5.21-12.84,11.91-6.12,26.19-6.24,38.21-.33,6.59,3.25,8.5,10.06,5.43,12.75-3.06,2.73-8.17,2.24-12.11.39Z"/>
  </g>
  <g>
    <rect class="cls-42" x="1929.71" y="493.02" width="199.78" height="132.66" rx="9.58" ry="9.58"/>
    <path class="cls-9" d="m1939.3,493.02h.03l4.79,4.84,80.7,51.09h.02c1.23.77,2.96,1.18,4.76,1.18s3.54-.41,4.77-1.18h.02l80.7-51.09,6.56-4.68c3.71.68,6.69,3.51,7.59,7.14l-89.7,56.77h.01c-2.8,1.79-6.42,2.7-9.94,2.7s-7.11-.9-9.93-2.68h.01s-89.69-56.78-89.69-56.78c1.04-4.18,4.82-7.3,9.31-7.3Z"/>
    <path class="cls-12" d="m1939.29,493.02h180.62c2.76,0,5.25,1.18,7,3.05l-89.96,56.95c-4.04,2.57-10.65,2.57-14.69,0l-89.96-56.95c1.75-1.87,4.24-3.05,7-3.05Z"/>
  </g>
</svg>